<svg xmlns="http://www.w3.org/2000/svg" width="460" height="210" viewBox="0 0 460 210"><g fill="#333"><path d="M99.948 185.09h25.368c2.624 0 4.76-2.14 4.76-4.75v-25.376c0-2.62-2.136-4.758-4.76-4.758h-25.37c-2.62 0-4.77 2.138-4.77 4.758v10.562h-21.27c-.768-5.084-5.132-8.98-10.456-8.98-5.812 0-10.55 4.728-10.55 10.57 0 5.834 4.734 10.57 10.55 10.57 5.307 0 9.688-3.896 10.455-8.98h21.27v11.636c.003 2.61 2.15 4.75 4.773 4.748zM65.05 172.93c-3.504 0-6.335-2.83-6.335-6.34s2.83-6.34 6.335-6.34c3.512 0 6.352 2.83 6.352 6.34s-2.84 6.34-6.352 6.34zM182.945 33.897c-5.848 0-10.562 4.728-10.562 10.563 0 5.842 4.716 10.57 10.562 10.57 5.844 0 10.565-4.73 10.565-10.57 0-5.835-4.72-10.563-10.565-10.563zm1.587 16.38c-3.512 0-6.344-2.84-6.344-6.332 0-3.514 2.832-6.353 6.344-6.353 3.507 0 6.347 2.84 6.347 6.353 0 3.492-2.84 6.33-6.346 6.33v.002h-.002zm-25.376 5.296c-5.84 0-10.574 4.723-10.574 10.562 0 5.837 4.733 10.575 10.574 10.575 5.846 0 10.564-4.738 10.564-10.575 0-5.84-4.72-10.562-10.564-10.562zm1.582 16.387c-3.493 0-6.336-2.85-6.336-6.355 0-3.497 2.843-6.34 6.337-6.34 3.502 0 6.337 2.843 6.337 6.34 0 3.507-2.835 6.354-6.336 6.354h-.002zm288.643 44.41c-5.343 0-9.735 3.96-10.438 9.114h-66.604c-2.037.056-5.596-1.43-6.998-2.9L257.863 15.125c-2.28-2.22-6.033-3.774-9.23-3.832h-80.48c-3.213.06-6.962 1.613-9.248 3.835l-34.72 34.707c-1.396 1.48-4.962 2.947-6.992 2.892h-1.39c-2.674 0-6.96.177-9.625.378-1.108.187-1.31.876-1.405 1.082-.256.775-.342 1.586-.372 5.18V81.52c-1.07-.37-2.218-.575-3.41-.575-5.84 0-10.56 4.737-10.56 10.572 0 5.836 4.726 10.575 10.56 10.575 5.85 0 10.57-4.738 10.57-10.575 0-3.353-1.56-6.337-3.99-8.273v-23.88c0-1.53.047-2.543.087-3.18 2.544-.164 5.954-.277 8.146-.277h1.39c3.193-.06 6.932-1.61 9.25-3.837l34.693-34.696c1.4-1.486 4.968-2.957 7.016-2.91h80.484c2.03-.047 5.592 1.424 6.992 2.91L363.09 124.832c2.29 2.21 6.062 3.773 9.246 3.826h66.63c.835 5.015 5.173 8.853 10.413 8.853 5.85 0 10.58-4.73 10.58-10.566 0-5.844-4.735-10.573-10.58-10.574zM108.918 90.985c0 3.5-2.835 6.345-6.322 6.345-3.505 0-6.35-2.843-6.35-6.344 0-3.502 2.845-6.34 6.35-6.34 3.488 0 6.323 2.837 6.322 6.34zm342.067 41.764c-3.512 0-6.355-2.844-6.355-6.352 0-3.5 2.843-6.336 6.354-6.336 3.5 0 6.336 2.84 6.336 6.338 0 3.507-2.834 6.35-6.336 6.35zM20.118 32.31c-5.85 0-10.568 4.727-10.568 10.57 0 5.837 4.722 10.566 10.568 10.566 2.09 0 4.037-.61 5.678-1.656h48.608c-.234.865-.37 1.776-.37 2.72 0 5.842 4.75 10.572 10.577 10.572 5.85 0 10.566-4.73 10.566-10.573 0-5.84-4.718-10.566-10.564-10.566-3.694 0-6.945 1.9-8.838 4.772v-.096H28.978c1.085-1.66 1.7-3.624 1.7-5.74.002-5.844-4.718-10.57-10.56-10.57zm66.074 15.322c3.51 0 6.342 2.847 6.342 6.347 0 3.503-2.833 6.34-6.342 6.34-3.49 0-6.332-2.837-6.332-6.343 0-3.5 2.84-6.348 6.332-6.348v.002zm-63.744.99h-.735v.072c-3.51 0-6.354-2.848-6.354-6.346 0-3.5 2.845-6.337 6.353-6.337 3.49 0 6.322 2.84 6.322 6.34 0 3.25-2.43 5.904-5.587 6.272zM9.018 210h3.178v-97.338H9.018m102.03-68.742c5.828 0 10.56-4.7 10.563-10.522h1.48c2.91-.062 6.355-1.67 8.605-3.833l23.5-23.505c1.4-1.477 4.964-2.96 7-2.892h90.993c2.045-.068 5.596 1.415 6.996 2.892l96.97 96.96c2.3 2.216 6.034 3.777 9.24 3.833h48.313c.996 4.823 5.246 8.46 10.357 8.46 5.854 0 10.582-4.75 10.582-10.58 0-5.844-4.73-10.575-10.584-10.575-5.48 0-9.99 4.174-10.508 9.515H366.39c-2.035.054-5.605-1.417-7-2.91l-96.96-96.95C260.13 1.6 256.38.05 253.188 0h-90.995c-3.198.05-6.948 1.6-9.244 3.815l-23.507 23.508c-1.44 1.53-4.755 2.96-6.354 2.896h-1.94c-1.333-4.31-5.353-7.437-10.103-7.437-5.85 0-10.565 4.743-10.565 10.573 0 5.835 4.72 10.562 10.567 10.564zM426.66 97.856c3.504 0 6.34 2.848 6.34 6.347 0 3.505-2.836 6.345-6.34 6.345-3.5 0-6.338-2.84-6.338-6.345 0-3.5 2.838-6.347 6.338-6.347zM112.63 26.493c3.504 0 6.335 2.833 6.335 6.34 0 3.504-2.83 6.337-6.336 6.337-3.49 0-6.34-2.833-6.34-6.337 0-3.507 2.85-6.34 6.34-6.34zM21.165 102.09c0-5.838-4.737-10.572-10.562-10.572-5.852 0-10.564 4.734-10.564 10.57 0 5.834 4.716 10.573 10.565 10.573 5.824.004 10.562-4.735 10.56-10.57zm-8.97 5.814c-3.52 0-6.354-2.84-6.354-6.35 0-3.497 2.833-6.333 6.354-6.333 3.505 0 6.337 2.84 6.337 6.336 0 3.508-2.832 6.35-6.337 6.35v-.002z"/><path d="M364.418 210v-68.262c-.06-3.19-1.623-6.94-3.848-9.238L253.715 25.627c-2.295-2.216-6.05-3.765-9.248-3.827h-71.18c-3.185.062-6.937 1.61-9.23 3.827l-44.335 44.317.064.056c-1.486 1.83-2.385 4.16-2.385 6.71 0 5.842 4.716 10.58 10.563 10.58 5.826 0 10.576-4.738 10.576-10.58 0-5.816-4.7-10.532-10.52-10.57l38.266-38.26c1.415-1.486 4.96-2.964 7-2.91h71.177c2.03-.054 5.604 1.424 6.994 2.91l106.887 106.864c1.465 1.396 2.953 4.96 2.89 6.995V210h3.184zM129.56 69.84c3.49 0 6.34 2.84 6.34 6.347s-2.85 6.337-6.34 6.337c-3.52 0-6.353-2.83-6.353-6.337 0-3.506 2.83-6.346 6.354-6.347z"/><path d="M311.27 210v-56.37c-.05-3.187-1.604-6.944-3.82-9.24l-23.418-23.4c-2.283-2.222-6.033-3.775-9.23-3.83l-101.818-.724c1.906-1.92 3.096-4.558 3.096-7.47 0-5.846-4.736-10.58-10.568-10.58-5.854 0-10.592 4.734-10.592 10.58 0 5.29 3.896 9.66 8.98 10.44v.134l110.896.78c2.05-.04 5.602 1.432 7.004 2.9l23.41 23.41c1.484 1.405 2.96 4.97 2.883 7V210h3.177zm-144.195-95.225c-3.488 0-6.336-2.836-6.336-6.34 0-3.51 2.85-6.346 6.337-6.346 3.51 0 6.354 2.836 6.354 6.343.002 3.506-2.843 6.34-6.355 6.342zM332.69 210v-67.074c-.042-3.193-1.618-6.95-3.833-9.234l-65.83-65.84c-2.29-2.214-6.047-3.763-9.232-3.814h-84.072V67.2h84.072c2.02-.043 5.59 1.42 6.982 2.9l65.846 65.83c1.477 1.406 2.95 4.97 2.89 7V210h3.176z"/><path d="M205.155 98.385c0-5.843-4.736-10.568-10.585-10.568-5.834 0-10.562 4.726-10.562 10.568 0 5.84 4.73 10.573 10.562 10.573 5.85 0 10.585-4.734 10.585-10.573zm-15.332-.534c0-3.5 2.842-6.333 6.33-6.333 3.513 0 6.354 2.834 6.354 6.336 0 3.5-2.844 6.357-6.354 6.357-3.488 0-6.33-2.856-6.33-6.357v-.002zM342.79 210v-73.02c-.046-3.2-1.587-6.95-3.815-9.24l-80.398-80.41c-2.31-2.216-6.06-3.77-9.246-3.823h-55.81v3.18h55.81c2.03-.064 5.585 1.414 7 2.89l80.407 80.41c1.473 1.395 2.94 4.95 2.896 6.993V210h3.16-.004zM34.92 210V85.21c4.29-1.343 7.407-5.355 7.407-10.087 0-5.828-4.744-10.573-10.58-10.573-5.847 0-10.585 4.746-10.585 10.573 0 5.844 4.738 10.578 10.583 10.578V210h3.174zM26.988 74.6c0-3.507 2.845-6.34 6.355-6.34 3.5 0 6.33 2.833 6.33 6.34 0 3.495-2.83 6.335-6.314 6.343h-.04c-3.486-.008-6.33-2.848-6.332-6.343z"/><path d="M300.56 210v-50.9c-.044-3.188-1.6-6.95-3.815-9.24l-15.668-15.678c-2.314-2.215-6.05-3.765-9.25-3.824H195.1v.813c-5.838 0-10.57 4.73-10.57 10.57 0 5.83 4.732 10.572 10.57 10.572 5.848 0 10.566-4.742 10.566-10.57 0-3.318-1.516-6.262-3.903-8.204h70.06c2.03-.06 5.6 1.416 6.99 2.896l15.677 15.676c1.496 1.4 2.967 4.96 2.908 6.992V210h3.163zm-97.533-68.79c0 3.513-2.835 6.343-6.338 6.343-3.506 0-6.356-2.83-6.356-6.343 0-3.5 2.852-6.342 6.355-6.342 3.502 0 6.335 2.843 6.337 6.342zM321.982 210v-61.91c-.06-3.205-1.615-6.957-3.846-9.25l-59.08-59.093c-2.28-2.22-6.05-3.773-9.234-3.827h-65.424c-3.193.054-6.94 1.61-9.24 3.828l-3.773 3.792c-1.415 1.468-4.96 2.945-7.016 2.892h-7.32c-3.203.053-6.968 1.61-9.25 3.82l-8.92 8.935c-1.826-1.5-4.144-2.382-6.68-2.382-5.847 0-10.59 4.728-10.59 10.574 0 5.83 4.743 10.56 10.59 10.56 5.837 0 10.57-4.73 10.57-10.563 0-2.164-.65-4.174-1.773-5.847l9.036-9.033c1.413-1.483 4.967-2.945 7.018-2.893h7.32c3.216-.052 6.955-1.615 9.25-3.824l3.78-3.79c1.41-1.48 4.962-2.954 7-2.9h65.424c2.03-.053 5.6 1.42 6.99 2.9l59.104 59.087c1.465 1.405 2.94 4.963 2.893 7.01V210h3.177-.005zM133.77 113.19c-3.49 0-6.34-2.84-6.34-6.337 0-3.51 2.85-6.354 6.34-6.354 3.52 0 6.354 2.84 6.354 6.352 0 3.5-2.83 6.336-6.354 6.337z"/></g></svg>