<svg xmlns="http://www.w3.org/2000/svg" width="460" height="210" viewBox="0 0 460 210"><g fill="#EEE"><path d="M95.178 29.66v11.637H73.906c-.764-5.085-5.148-8.98-10.455-8.98-5.81 0-10.55 4.737-10.55 10.568 0 5.843 4.735 10.574 10.55 10.574 5.325 0 9.69-3.91 10.456-8.985h21.27v10.562c0 2.61 2.147 4.757 4.77 4.757h25.37c2.624 0 4.76-2.146 4.76-4.758v-25.38c0-2.61-2.136-4.75-4.76-4.75h-25.37c-2.622 0-4.77 2.14-4.77 4.75v.003h.002zm-23.78 13.75c0 3.51-2.84 6.342-6.352 6.342-3.505 0-6.336-2.83-6.336-6.342 0-3.507 2.83-6.337 6.335-6.337 3.515 0 6.354 2.83 6.353 6.337zm122.115 122.13c0-5.843-4.726-10.567-10.566-10.567-5.848 0-10.563 4.727-10.563 10.566 0 5.837 4.718 10.56 10.562 10.56 5.842 0 10.564-4.725 10.564-10.562v.002h.003zm-2.636.515c0 3.51-2.84 6.354-6.345 6.354-3.512 0-6.344-2.845-6.344-6.355 0-3.49 2.833-6.334 6.345-6.334 3.507 0 6.347 2.843 6.346 6.335h-.003zm-21.153-22.19c0-5.842-4.723-10.58-10.565-10.58-5.843 0-10.576 4.738-10.576 10.58 0 5.84 4.733 10.56 10.574 10.56 5.843 0 10.562-4.72 10.562-10.56h.004zm-2.65.53c0 3.494-2.835 6.34-6.336 6.34-3.492 0-6.335-2.846-6.335-6.34 0-3.506 2.843-6.354 6.337-6.354 3.502 0 6.337 2.85 6.337 6.356h-.004zM459.96 83.06c0-5.83-4.73-10.565-10.58-10.565-5.24 0-9.58 3.838-10.415 8.854h-66.63c-3.184.05-6.955 1.606-9.25 3.82L255.63 192.63c-1.4 1.48-4.96 2.956-6.992 2.91h-80.48c-2.046.046-5.61-1.43-7.01-2.91l-34.7-34.696c-2.315-2.23-6.05-3.775-9.25-3.838h-1.384c-2.195 0-5.605-.117-8.148-.28-.04-.638-.085-1.645-.085-3.183v-23.875c2.43-1.932 3.99-4.92 3.99-8.27 0-5.84-4.723-10.578-10.57-10.578-5.84 0-10.56 4.738-10.56 10.58 0 5.83 4.722 10.568 10.56 10.568 1.193 0 2.34-.205 3.41-.574v22.148c.03 3.602.12 4.406.37 5.184.1.205.298.896 1.407 1.086 2.662.195 6.95.375 9.623.375h1.39c2.028-.06 5.595 1.414 6.99 2.893l34.72 34.703c2.286 2.23 6.035 3.785 9.25 3.836h80.478c3.193-.05 6.944-1.61 9.23-3.827l107.476-107.47c1.4-1.465 4.96-2.954 6.996-2.896h66.605c.7 5.148 5.097 9.118 10.438 9.118 5.845 0 10.58-4.73 10.58-10.573l-.002-.002zm-357.366 42.29c-3.505 0-6.35-2.832-6.35-6.34 0-3.492 2.845-6.34 6.35-6.34 3.487 0 6.323 2.848 6.323 6.34 0 3.508-2.834 6.34-6.323 6.34zM457.32 83.593c0 3.504-2.836 6.34-6.337 6.34-3.513 0-6.355-2.836-6.355-6.34 0-3.506 2.844-6.344 6.355-6.344 3.5 0 6.336 2.837 6.336 6.343zM30.68 167.12c0-2.116-.617-4.083-1.7-5.74h46.795v-.103c1.893 2.87 5.144 4.777 8.838 4.777 5.85 0 10.565-4.727 10.565-10.564 0-5.842-4.72-10.574-10.565-10.574-5.826 0-10.576 4.732-10.576 10.576 0 .943.134 1.85.37 2.725h-48.61c-1.64-1.047-3.587-1.66-5.678-1.66-5.85 0-10.568 4.727-10.568 10.566 0 5.844 4.722 10.564 10.568 10.564 5.845 0 10.565-4.723 10.565-10.562l-.004-.006zm49.178-11.1c0-3.504 2.84-6.34 6.332-6.34 3.51 0 6.342 2.836 6.342 6.34s-2.833 6.346-6.342 6.346c-3.49 0-6.332-2.842-6.332-6.344v-.002zm-51.825 11.632c0 3.502-2.83 6.336-6.322 6.336-3.51 0-6.353-2.836-6.353-6.338s2.846-6.342 6.354-6.342v.066h.736c3.157.37 5.587 3.02 5.587 6.27v.008zM9.017 0h3.178v97.334H9.017"/><path d="M100.48 176.64c0 5.835 4.72 10.573 10.564 10.573 4.75 0 8.77-3.13 10.105-7.438h1.937c1.602-.062 4.913 1.373 6.354 2.906l23.507 23.505c2.296 2.22 6.046 3.77 9.244 3.814h90.995c3.194-.046 6.944-1.6 9.246-3.813l96.963-96.953c1.395-1.484 4.964-2.96 7-2.902h48.166c.514 5.338 5.02 9.52 10.505 9.52 5.854 0 10.582-4.733 10.582-10.58 0-5.826-4.73-10.58-10.583-10.58-5.113 0-9.363 3.635-10.357 8.467h-48.312c-3.208.05-6.942 1.606-9.24 3.832l-96.97 96.953c-1.402 1.482-4.953 2.965-6.998 2.898h-90.994c-2.035.064-5.596-1.416-6.998-2.898l-23.502-23.504c-2.25-2.16-5.695-3.763-8.604-3.833h-1.48c-.005-5.814-4.73-10.52-10.562-10.52-5.85-.003-10.568 4.73-10.568 10.56v-.006zm319.84-70.843c0-3.505 2.84-6.35 6.338-6.35 3.505 0 6.34 2.845 6.34 6.35 0 3.494-2.835 6.344-6.34 6.344-3.5 0-6.337-2.847-6.337-6.343zm-314.033 71.37c0-3.505 2.854-6.337 6.343-6.337 3.505 0 6.336 2.832 6.336 6.336 0 3.508-2.83 6.34-6.337 6.34-3.49 0-6.34-2.832-6.34-6.34l-.003.002zM10.602 97.334c-5.852 0-10.564 4.74-10.564 10.577 0 5.844 4.715 10.568 10.564 10.568 5.823 0 10.562-4.73 10.562-10.566s-4.736-10.576-10.562-10.576v-.003zm7.93 11.11c0 3.5-2.83 6.336-6.337 6.336-3.52 0-6.354-2.837-6.354-6.34 0-3.507 2.834-6.354 6.355-6.354 3.505 0 6.337 2.85 6.337 6.355v.003z"/><path d="M361.236 0v68.266c.06 2.033-1.432 5.602-2.895 6.996L251.46 182.115c-1.39 1.49-4.963 2.97-6.995 2.91h-71.18c-2.037.06-5.584-1.42-6.998-2.91l-38.26-38.256c5.814-.04 10.516-4.755 10.516-10.575 0-5.834-4.75-10.57-10.576-10.57-5.85 0-10.56 4.736-10.56 10.57 0 2.555.896 4.88 2.384 6.717l-.06.05 44.334 44.315c2.296 2.217 6.048 3.77 9.23 3.83h71.176c3.2-.06 6.954-1.613 9.248-3.83L360.568 77.5c2.226-2.298 3.788-6.048 3.847-9.234V0h-3.18zm-238.03 133.812c0-3.506 2.832-6.336 6.354-6.336 3.488 0 6.34 2.83 6.34 6.336s-2.852 6.342-6.34 6.342c-3.522 0-6.354-2.836-6.354-6.342z"/><path d="M308.09 0v56.37c.077 2.032-1.396 5.6-2.88 6.998l-23.412 23.405c-1.4 1.475-4.953 2.943-7.003 2.902l-110.9.78v.13c-5.084.79-8.98 5.157-8.98 10.448 0 5.847 4.74 10.58 10.593 10.58 5.833.002 10.568-4.732 10.568-10.58 0-2.91-1.188-5.556-3.098-7.48l101.82-.72c3.195-.06 6.945-1.605 9.23-3.832l23.416-23.4c2.22-2.296 3.772-6.052 3.822-9.233V0h-3.176zM173.43 101.57c0 3.507-2.846 6.34-6.353 6.34-3.49 0-6.337-2.833-6.337-6.34 0-3.506 2.848-6.352 6.336-6.352 3.508.004 6.354 2.846 6.354 6.352z"/><path d="M332.688 0v67.077c-.042 3.188-1.617 6.95-3.832 9.23l-65.83 65.847c-2.29 2.215-6.048 3.76-9.232 3.812h-84.072v-3.17h84.072c2.02.055 5.59-1.416 6.982-2.896l65.845-65.83c1.48-1.41 2.95-4.968 2.893-6.996V0h3.175z"/><path d="M194.568 101.042c-5.834 0-10.562 4.734-10.562 10.578 0 5.832 4.73 10.56 10.562 10.56 5.85 0 10.585-4.728 10.585-10.56 0-5.847-4.736-10.58-10.585-10.58v.002zm1.583 4.753c3.514 0 6.355 2.854 6.355 6.357 0 3.494-2.844 6.336-6.354 6.336-3.487 0-6.33-2.842-6.33-6.338 0-3.504 2.84-6.355 6.33-6.355zM342.79 0v73.02c-.046 3.203-1.587 6.955-3.814 9.238l-80.398 80.41c-2.31 2.214-6.06 3.77-9.247 3.82h-55.813v-3.18h55.812c2.03.067 5.584-1.417 7-2.896l80.406-80.4c1.473-1.403 2.938-4.956 2.896-6.993V0h3.16-.004zM31.746 0v124.3c-5.844 0-10.582 4.733-10.582 10.577 0 5.828 4.738 10.57 10.583 10.57 5.84 0 10.583-4.742 10.583-10.57 0-4.732-3.116-8.748-7.407-10.088V0h-3.177zm1.57 129.06h.04c3.484.003 6.315 2.85 6.315 6.34 0 3.507-2.83 6.35-6.33 6.35-3.513 0-6.357-2.843-6.357-6.353 0-3.488 2.848-6.334 6.333-6.338z"/><path d="M297.4 0v50.9c.057 2.03-1.413 5.594-2.91 6.993l-15.673 15.674c-1.395 1.485-4.96 2.965-6.99 2.9h-70.06c2.388-1.945 3.9-4.893 3.9-8.203 0-5.834-4.72-10.576-10.564-10.576-5.837 0-10.57 4.74-10.57 10.576 0 5.834 4.733 10.564 10.57 10.564v.816h76.725c3.2-.062 6.937-1.612 9.25-3.828l15.668-15.674c2.218-2.295 3.772-6.052 3.817-9.246V0H297.4zM196.69 75.135c-3.506 0-6.356-2.847-6.356-6.35 0-3.51 2.852-6.34 6.355-6.34 3.502 0 6.335 2.83 6.335 6.34 0 3.504-2.835 6.35-6.336 6.35z"/><path d="M318.806 0v61.91c.052 2.05-1.427 5.604-2.892 7.013l-59.104 59.085c-1.395 1.48-4.96 2.95-6.99 2.896h-65.424c-2.04.057-5.597-1.42-7.005-2.896l-3.775-3.793c-2.298-2.213-6.037-3.77-9.25-3.818h-7.32c-2.05.05-5.604-1.412-7.02-2.893l-9.035-9.04c1.124-1.667 1.77-3.678 1.77-5.844 0-5.83-4.73-10.562-10.566-10.562-5.85 0-10.588 4.732-10.588 10.562 0 5.846 4.738 10.58 10.587 10.58 2.537 0 4.854-.886 6.68-2.384l8.92 8.932c2.283 2.21 6.048 3.77 9.252 3.814h7.32c2.054-.05 5.6 1.432 7.015 2.895l3.773 3.79c2.3 2.23 6.046 3.772 9.24 3.83h65.423c3.187-.058 6.95-1.603 9.234-3.83l59.082-59.088c2.23-2.297 3.788-6.05 3.847-9.25V0h-3.18.006zM140.122 103.15c0 3.508-2.83 6.354-6.354 6.354-3.49 0-6.34-2.848-6.34-6.354 0-3.502 2.85-6.336 6.34-6.336 3.52 0 6.354 2.834 6.354 6.338v-.002z"/></g></svg>