<svg xmlns="http://www.w3.org/2000/svg" width="581" height="265" viewBox="0 0 581 265"><g fill="#EEE"><path d="M120.37 37.43v14.678H93.523c-.967-6.414-6.498-11.33-13.19-11.33-7.342 0-13.32 5.98-13.32 13.342 0 7.375 5.978 13.34 13.32 13.34 6.712 0 12.225-4.92 13.19-11.335h26.848v13.33c0 3.31 2.704 6.004 6.012 6.004h32.013c3.312 0 6.01-2.697 6.01-6.004V37.434c0-3.297-2.697-6-6.01-6H126.38c-3.306 0-6.01 2.703-6.01 6v-.004zM90.357 54.777c0 4.433-3.577 8.006-8.008 8.006-4.42 0-7.993-3.572-7.993-8.006 0-4.426 3.573-7.996 7.992-7.996 4.43 0 8.006 3.574 8.007 7.997zm154.104 154.12c0-7.37-5.97-13.34-13.34-13.34-7.38 0-13.33 5.97-13.33 13.34 0 7.365 5.95 13.332 13.33 13.332 7.372 0 13.34-5.967 13.34-13.333zm-3.333.653c0 4.436-3.574 8.014-8 8.014-4.436 0-8.01-3.576-8.01-8.01 0-4.41 3.574-7.994 8.01-7.994 4.426 0 8 3.582 8 7.99zm-26.69-28.003c0-7.37-5.96-13.348-13.34-13.348-7.367 0-13.336 5.978-13.336 13.347 0 7.365 5.97 13.33 13.34 13.33 7.38 0 13.34-5.965 13.338-13.33zm-3.342.666c0 4.416-3.58 8.004-7.995 8.004s-7.995-3.588-7.995-8.002c0-4.424 3.58-8.014 7.997-8.014 4.415 0 7.996 3.59 7.996 8.015l-.003-.002z"/><path d="M580.693 104.815c0-7.362-5.976-13.34-13.354-13.34-6.608 0-12.09 4.846-13.144 11.176h-84.08c-4.02.066-8.777 2.038-11.67 4.83l-135.603 135.6c-1.775 1.876-6.26 3.735-8.824 3.67H212.452c-2.58.065-7.076-1.794-8.848-3.67L159.82 199.3c-2.92-2.81-7.636-4.77-11.67-4.844h-1.74c-2.77 0-7.08-.146-10.29-.352-.05-.807-.108-2.078-.108-4.02v-30.13c3.073-2.44 5.04-6.207 5.04-10.44 0-7.362-5.96-13.345-13.344-13.345-7.364 0-13.33 5.98-13.33 13.345 0 7.363 5.965 13.344 13.33 13.344 1.51 0 2.955-.265 4.31-.73v27.95c.03 4.54.143 5.563.47 6.537.12.26.363 1.133 1.77 1.37 3.36.25 8.77.478 12.15.478h1.74c2.567-.074 7.06 1.78 8.823 3.65l43.814 43.793c2.893 2.803 7.62 4.768 11.67 4.84H314.02c4.027-.07 8.758-2.037 11.644-4.838l135.623-135.607c1.773-1.854 6.262-3.73 8.83-3.654h84.044c.892 6.503 6.44 11.503 13.183 11.503 7.378 0 13.352-5.965 13.353-13.34l-.003.002zm-450.97 53.37c-4.42 0-8.007-3.573-8.007-8 0-4.415 3.586-8.005 8.008-8.005 4.4 0 7.984 3.59 7.984 8.004 0 4.423-3.583 8-7.984 8.002zm447.636-52.693c0 4.42-3.58 8-7.994 8-4.436 0-8.02-3.58-8.02-8 0-4.423 3.584-8.01 8.02-8.01 4.414 0 7.994 3.587 7.993 8.01zM38.98 210.897c0-2.676-.786-5.152-2.15-7.244h59.045v-.125c2.393 3.62 6.488 6.02 11.152 6.02 7.384 0 13.34-5.964 13.34-13.33 0-7.373-5.956-13.346-13.34-13.346-7.355 0-13.343 5.973-13.343 13.345 0 1.19.164 2.338.467 3.436H32.81c-2.07-1.32-4.524-2.098-7.162-2.098-7.385 0-13.342 5.97-13.342 13.34s5.957 13.334 13.342 13.334c7.375 0 13.334-5.968 13.334-13.337v.004zm62.058-14.01c0-4.425 3.576-8.004 7.985-8.004 4.43 0 8.007 3.58 8.007 8.005 0 4.418-3.576 8.012-8.007 8.012-4.408 0-7.985-3.594-7.985-8.012v-.002zm-65.4 14.68c0 4.412-3.575 7.992-7.984 7.992-4.434 0-8.017-3.583-8.017-8s3.582-8.005 8.016-8.005v.096h.926c3.983.466 7.056 3.808 7.056 7.91v.007zM11.63 0h4.015v122.83h-4.013"/><path d="M127.054 222.905c0 7.357 5.957 13.342 13.342 13.342 5.988 0 11.06-3.943 12.744-9.38h2.454c2.016-.08 6.192 1.728 8.015 3.657l29.665 29.658c2.897 2.803 7.627 4.755 11.66 4.817h114.83c4.03-.065 8.76-2.023 11.667-4.818l122.353-122.34c1.762-1.884 6.266-3.743 8.84-3.673h60.773c.652 6.737 6.34 12.01 13.262 12.01 7.39 0 13.355-5.974 13.355-13.346 0-7.357-5.97-13.35-13.355-13.35-6.453 0-11.818 4.584-13.063 10.677h-60.97c-4.055.068-8.77 2.038-11.67 4.837l-122.36 122.36c-1.773 1.86-6.256 3.73-8.83 3.648H204.933c-2.57.082-7.06-1.787-8.834-3.648l-29.654-29.662c-2.834-2.73-7.183-4.758-10.85-4.834h-1.876c-.007-7.35-5.966-13.28-13.32-13.28-7.386 0-13.343 5.963-13.344 13.324h-.002zm403.618-89.4c0-4.422 3.584-8.006 7.99-8.006 4.422 0 8.006 3.582 8.006 8.004 0 4.418-3.582 8.01-8.005 8.01-4.408 0-7.993-3.592-7.99-8.01zm-396.284 90.068c0-4.42 3.595-7.998 8.004-7.998 4.42 0 7.994 3.578 7.994 7.998 0 4.428-3.573 8.004-7.994 8.004-4.41 0-8.005-3.576-8.004-8.004zM13.64 122.83c-7.384 0-13.334 5.983-13.334 13.344 0 7.367 5.95 13.34 13.334 13.34 7.354 0 13.332-5.973 13.332-13.34 0-7.36-5.978-13.343-13.332-13.343zm10.002 14.022c0 4.412-3.574 7.988-7.995 7.988-4.44 0-8.015-3.576-8.015-7.99 0-4.43 3.576-8.015 8.017-8.015 4.42 0 7.995 3.586 7.995 8.015l-.003.002z"/><path d="M456.106 0v86.142c.08 2.567-1.795 7.065-3.646 8.83l-134.882 134.85c-1.752 1.875-6.26 3.738-8.823 3.672h-89.817c-2.576.066-7.05-1.797-8.834-3.674l-48.285-48.282c7.342-.047 13.272-5.996 13.272-13.338 0-7.37-5.988-13.352-13.342-13.352-7.384 0-13.333 5.98-13.333 13.352 0 3.217 1.132 6.16 3.015 8.47l-.082.065 55.94 55.925c2.898 2.795 7.63 4.75 11.653 4.83h89.815c4.04-.08 8.772-2.033 11.67-4.83l134.85-134.863c2.8-2.9 4.774-7.63 4.847-11.66V0h-4.02zm-300.37 168.86c0-4.43 3.576-7.997 8.018-7.997 4.408 0 8.004 3.568 8.004 7.998 0 4.423-3.596 8.005-8.004 8.005-4.442 0-8.018-3.582-8.018-8.006z"/><path d="M389.05 0v71.133c.093 2.562-1.772 7.062-3.646 8.832l-29.537 29.542c-1.778 1.855-6.26 3.71-8.846 3.66l-139.944.982v.167c-6.414.99-11.324 6.5-11.324 13.18 0 7.378 5.98 13.35 13.356 13.35 7.365 0 13.34-5.972 13.34-13.35 0-3.676-1.494-7.006-3.907-9.43l128.495-.91c4.028-.07 8.762-2.03 11.646-4.832l29.548-29.53c2.8-2.9 4.763-7.64 4.83-11.663V0h-4.01zM219.116 128.17c0 4.425-3.588 8.004-8.02 8.004-4.404 0-7.996-3.58-7.996-8.005 0-4.423 3.593-8.006 7.996-8.006 4.433 0 8.022 3.583 8.02 8.005z"/><path d="M420.083 0v84.644c-.056 4.028-2.04 8.77-4.832 11.653l-83.07 83.088c-2.895 2.793-7.636 4.748-11.66 4.814H214.44v-3.997h106.084c2.55.06 7.063-1.787 8.82-3.656l83.087-83.07c1.863-1.773 3.717-6.27 3.645-8.833V0h4.008z"/><path d="M245.786 127.507c-7.353 0-13.33 5.974-13.33 13.343 0 7.37 5.978 13.332 13.33 13.332 7.385 0 13.36-5.96 13.36-13.334 0-7.37-5.976-13.344-13.36-13.344v.003zm2.002 5.997c4.436 0 8.015 3.6 8.015 8.02s-3.58 7.998-8.017 7.998c-4.405 0-7.983-3.58-7.983-7.998 0-4.42 3.577-8.02 7.982-8.02h.003zM432.833 0v92.144c-.06 4.043-2.01 8.773-4.814 11.664L326.554 205.276c-2.905 2.797-7.645 4.758-11.67 4.818H244.46v-4.01h70.426c2.56.08 7.052-1.785 8.835-3.65L425.19 100.97c1.854-1.765 3.717-6.25 3.66-8.827V0h3.986-.003zM40.326 0v156.855c-7.374 0-13.353 5.975-13.353 13.348 0 7.354 5.98 13.342 13.354 13.342 7.364 0 13.354-5.986 13.354-13.344 0-5.97-3.93-11.032-9.35-12.73V0h-4.004zM42.3 162.86h.052c4.4.01 7.974 3.59 7.974 8 0 4.427-3.575 8.007-7.984 8.007-4.44 0-8.026-3.58-8.026-8.006 0-4.41 3.585-7.99 7.984-8z"/><path d="M375.56 0v64.23c.062 2.563-1.784 7.057-3.673 8.827l-19.78 19.778c-1.76 1.866-6.26 3.73-8.823 3.653H254.87c3.02-2.452 4.933-6.166 4.933-10.354 0-7.354-5.962-13.343-13.342-13.343-7.354 0-13.33 5.986-13.33 13.344 0 7.37 5.976 13.334 13.33 13.334v1.03h96.826c4.038-.07 8.76-2.03 11.676-4.825l19.77-19.785c2.802-2.896 4.76-7.638 4.82-11.66V0h-3.993zM248.47 94.812c-4.42 0-8.02-3.59-8.02-8.006 0-4.43 3.6-8.002 8.02-8.002 4.417 0 7.995 3.57 7.995 8.002 0 4.416-3.578 8.006-7.996 8.006z"/><path d="M402.562 0v78.125c.073 2.584-1.79 7.07-3.646 8.85l-74.584 74.563c-1.76 1.867-6.26 3.727-8.82 3.66h-82.564c-2.564.062-7.052-1.793-8.827-3.66l-4.77-4.78c-2.896-2.79-7.62-4.76-11.673-4.825h-9.238c-2.59.064-7.077-1.783-8.858-3.648l-11.398-11.398c1.415-2.11 2.23-4.65 2.23-7.38 0-7.36-5.97-13.333-13.33-13.333-7.378 0-13.366 5.974-13.366 13.334 0 7.38 5.99 13.346 13.366 13.346 3.197 0 6.12-1.113 8.424-3.01l11.26 11.275c2.884 2.786 7.628 4.75 11.675 4.815h9.236c2.6-.068 7.07 1.795 8.856 3.65l4.76 4.78c2.906 2.804 7.63 4.763 11.655 4.83h82.565c4.02-.067 8.77-2.026 11.66-4.83l74.56-74.565c2.81-2.896 4.776-7.63 4.844-11.676V0h-4.018zm-225.48 130.165c0 4.427-3.573 8.017-8.015 8.017-4.41 0-8-3.59-8-8.015 0-4.416 3.59-7.997 7.998-7.997 4.44 0 8.014 3.58 8.014 7.997l.002-.002z"/></g></svg>