<svg xmlns="http://www.w3.org/2000/svg" width="1041" height="530" viewBox="0 0 1041 530"><g fill="#375D81"><path d="M126.072 233.568h32.014c3.312 0 6.01-2.704 6.01-6v-32.02c0-3.307-2.698-6.003-6.01-6.003h-32.014c-3.307 0-6.01 2.696-6.01 6.003v13.33H93.217c-.967-6.415-6.48-11.336-13.19-11.336-7.342 0-13.32 5.967-13.32 13.34 0 7.362 5.978 13.34 13.32 13.34 6.692 0 12.224-4.915 13.19-11.33h26.848v14.677c0 3.294 2.702 5.998 6.008 5.998zm-44.03-15.347c-4.42 0-7.992-3.57-7.992-7.996 0-4.432 3.573-8.005 7.992-8.005 4.43 0 8.007 3.572 8.007 8.004 0 4.425-3.577 7.997-8.008 7.997zM230.81 42.773c-7.377 0-13.327 5.967-13.327 13.332 0 7.37 5.95 13.34 13.328 13.34 7.373 0 13.343-5.97 13.343-13.34 0-7.365-5.97-13.332-13.342-13.332zm2.008 20.67c-4.436 0-8.01-3.58-8.01-7.99 0-4.433 3.574-8.014 8.01-8.014 4.426 0 8 3.58 8 8.012 0 4.41-3.574 7.992-8 7.992zM200.79 70.126c-7.367 0-13.337 5.964-13.337 13.33 0 7.367 5.97 13.346 13.338 13.346 7.378 0 13.34-5.98 13.34-13.347 0-7.365-5.962-13.33-13.34-13.33zm2 20.678c-4.415 0-7.995-3.59-7.995-8.015 0-4.415 3.58-8.003 7.996-8.003 4.415 0 7.996 3.588 7.996 8.002 0 4.423-3.58 8.014-7.995 8.014zM567.025 146.845c-6.736 0-12.287 5-13.178 11.503h-84.042c-2.57.073-7.057-1.8-8.83-3.655L325.355 19.085c-2.886-2.8-7.616-4.766-11.643-4.837H212.144c-4.05.07-8.776 2.036-11.67 4.838l-43.81 43.795c-1.765 1.87-6.257 3.724-8.823 3.65h-1.74c-3.38 0-8.79.226-12.15.478-1.407.237-1.652 1.11-1.772 1.37-.325.974-.438 1.998-.47 6.534v27.952c-1.353-.465-2.8-.725-4.31-.725-7.362 0-13.33 5.978-13.33 13.34 0 7.368 5.968 13.348 13.33 13.348 7.386 0 13.345-5.98 13.345-13.347 0-4.23-1.967-7.996-5.04-10.437V74.91c0-1.934.06-3.21.11-4.016 3.208-.204 7.517-.35 10.287-.35h1.74c4.035-.074 8.75-2.03 11.672-4.844l43.785-43.78c1.77-1.876 6.27-3.735 8.848-3.67h101.568c2.564-.065 7.05 1.794 8.822 3.67l135.602 135.6c2.89 2.792 7.647 4.762 11.67 4.83h84.08c1.05 6.33 6.53 11.175 13.14 11.175 7.378 0 13.353-5.977 13.353-13.34 0-7.373-5.976-13.34-13.355-13.34zM137.4 114.817c0 4.414-3.583 8.005-7.984 8.005-4.422 0-8.008-3.59-8.008-8.005 0-4.424 3.586-8 8.008-8 4.4 0 7.984 3.577 7.984 8zm431.653 52.704c-4.436 0-8.018-3.587-8.018-8.01 0-4.42 3.582-8 8.018-8 4.414 0 7.994 3.58 7.994 8 0 4.423-3.58 8.01-7.994 8.01zM25.342 40.772C17.957 40.772 12 46.737 12 54.107s5.957 13.34 13.342 13.34c2.638 0 5.092-.775 7.162-2.095h61.344c-.303 1.095-.467 2.243-.467 3.432 0 7.372 5.99 13.344 13.343 13.344 7.385 0 13.34-5.972 13.34-13.344 0-7.366-5.955-13.332-13.34-13.332-4.664 0-8.76 2.402-11.152 6.025v-.125H36.526c1.364-2.092 2.15-4.57 2.15-7.245 0-7.37-5.958-13.335-13.333-13.335zm83.377 19.336c4.43 0 8.006 3.59 8.006 8.01 0 4.423-3.576 8-8.007 8-4.41 0-7.986-3.577-7.986-8 0-4.42 3.576-8.01 7.985-8.01zm-80.445 1.245h-.925v.093c-4.434 0-8.017-3.59-8.017-8.007s3.583-7.998 8.017-7.998c4.41 0 7.982 3.58 7.982 7.997 0 4.104-3.073 7.447-7.057 7.913zM11.326 265h4.015V142.17H11.327M140.088 55.425c7.355 0 13.314-5.933 13.322-13.28h1.876c3.667-.08 8.015-2.104 10.85-4.835L195.79 7.648c1.777-1.864 6.265-3.733 8.836-3.65h114.827c2.576-.083 7.06 1.786 8.832 3.65l122.36 122.354c2.9 2.8 7.614 4.77 11.668 4.835h60.968c1.247 6.092 6.614 10.677 13.067 10.677 7.387 0 13.355-5.99 13.355-13.35 0-7.372-5.97-13.344-13.355-13.344-6.922 0-12.61 5.27-13.262 12.01h-60.772c-2.577.07-7.08-1.79-8.84-3.672L331.12 4.815C328.21 2.018 323.48.063 319.452 0H204.626c-4.034.063-8.764 2.02-11.66 4.815L163.3 34.477c-1.82 1.93-5.998 3.738-8.014 3.66h-2.454c-1.684-5.44-6.756-9.382-12.744-9.382-7.385 0-13.342 5.98-13.342 13.342 0 7.364 5.957 13.328 13.342 13.328zm398.267 68.062c4.42 0 8.002 3.592 8.002 8.01 0 4.422-3.582 8.005-8.002 8.005-4.41 0-7.996-3.583-7.996-8.005 0-4.418 3.585-8.01 7.995-8.01zM142.085 33.43c4.42 0 7.993 3.576 7.993 8.002 0 4.42-3.573 7.997-7.994 7.997-4.41 0-8.005-3.577-8.005-7.998 0-4.426 3.595-8.002 8.004-8.002zM26.666 128.828c0-7.368-5.98-13.34-13.332-13.34C5.95 115.488 0 121.46 0 128.828c0 7.36 5.95 13.342 13.334 13.342 7.354 0 13.332-5.982 13.332-13.342zm-11.325 7.338c-4.44 0-8.016-3.586-8.016-8.015 0-4.412 3.576-7.988 8.017-7.988 4.422 0 7.996 3.576 7.996 7.99 0 4.428-3.574 8.014-7.995 8.014z"/><path d="M459.808 265v-86.14c-.07-4.028-2.046-8.758-4.845-11.658l-134.85-134.86c-2.895-2.798-7.63-4.752-11.67-4.83H218.63c-4.022.078-8.757 2.033-11.652 4.83l-55.94 55.924.082.066c-1.883 2.31-3.015 5.252-3.015 8.47 0 7.37 5.95 13.347 13.334 13.347 7.353 0 13.34-5.978 13.34-13.348 0-7.34-5.93-13.29-13.27-13.337l48.285-48.28c1.783-1.878 6.258-3.744 8.834-3.674h89.813c2.566-.07 7.074 1.797 8.825 3.673l134.88 134.85c1.852 1.762 3.726 6.26 3.646 8.828V265h4.014zM163.445 88.134c4.408 0 8.004 3.583 8.004 8.007 0 4.427-3.597 7.998-8.005 7.998-4.44 0-8.018-3.57-8.018-7.997 0-4.423 3.577-8.006 8.018-8.006z"/><path d="M392.75 265v-71.132c-.065-4.023-2.027-8.764-4.827-11.664l-29.547-29.53c-2.888-2.8-7.617-4.76-11.646-4.83l-128.492-.912c2.413-2.423 3.907-5.754 3.907-9.428 0-7.378-5.975-13.353-13.34-13.352-7.377 0-13.356 5.974-13.356 13.352 0 6.677 4.908 12.188 11.322 13.178v.17l139.943.983c2.586-.052 7.066 1.803 8.845 3.66l29.537 29.54c1.874 1.772 3.735 6.27 3.642 8.833V265h4.01zM210.787 144.837c-4.403 0-7.995-3.583-7.995-8.005 0-4.426 3.593-8.004 7.996-8.004 4.434 0 8.022 3.578 8.022 8.004 0 4.422-3.588 8.005-8.022 8.005zM419.772 265v-84.643c-.054-4.028-2.04-8.77-4.833-11.653l-83.07-83.088c-2.89-2.793-7.634-4.748-11.657-4.813H214.13v3.995h106.083c2.55-.06 7.063 1.787 8.82 3.656l83.085 83.07c1.864 1.776 3.718 6.272 3.647 8.833V265h4.007z"/><path d="M258.836 124.15c0-7.37-5.975-13.333-13.36-13.333-7.352 0-13.328 5.962-13.328 13.334s5.977 13.344 13.33 13.344c7.383 0 13.358-5.972 13.358-13.343zm-19.34-.672c0-4.416 3.578-7.996 7.982-7.996 4.438 0 8.017 3.58 8.017 7.996 0 4.42-3.58 8.02-8.017 8.02-4.404 0-7.982-3.6-7.982-8.02zM432.523 265v-92.143c-.06-4.042-2.008-8.773-4.815-11.663L326.245 59.726c-2.905-2.797-7.642-4.757-11.67-4.822h-70.423V58.916h70.424c2.56-.08 7.052 1.785 8.835 3.65L424.876 164.03c1.855 1.764 3.718 6.25 3.66 8.827V265h3.988zM44.022 265V107.528c5.42-1.695 9.35-6.76 9.35-12.728 0-7.357-5.99-13.344-13.352-13.344-7.375 0-13.354 5.986-13.354 13.344 0 7.373 5.98 13.345 13.354 13.345V265h4.002zM34.01 94.14c0-4.426 3.586-8.005 8.026-8.005 4.41 0 7.982 3.58 7.982 8.005 0 4.41-3.573 7.992-7.973 8h-.052c-4.397-.008-7.983-3.59-7.983-8z"/><path d="M379.235 265v-64.23c-.06-4.025-2.02-8.768-4.82-11.66l-19.77-19.786c-2.917-2.795-7.635-4.752-11.673-4.825H246.15v1.028c-7.357 0-13.332 5.964-13.332 13.334 0 7.355 5.975 13.342 13.332 13.342 7.38 0 13.342-5.986 13.342-13.342 0-4.186-1.913-7.9-4.933-10.354h88.412c2.564-.076 7.063 1.788 8.822 3.654l19.78 19.78c1.89 1.772 3.738 6.262 3.673 8.826V265h3.988zm-123.08-86.805c0 4.43-3.577 8.002-7.994 8.002-4.42 0-8.018-3.57-8.018-8.002 0-4.416 3.598-8.005 8.02-8.005 4.416 0 7.994 3.59 7.994 8.005zM406.262 265v-78.124c-.066-4.047-2.035-8.78-4.843-11.674l-74.558-74.566c-2.888-2.803-7.637-4.762-11.66-4.83H232.64c-4.024.068-8.75 2.027-11.654 4.83l-4.76 4.783c-1.787 1.853-6.26 3.718-8.856 3.648h-9.236c-4.047.07-8.79 2.03-11.676 4.818L175.2 125.162c-2.303-1.893-5.227-3.008-8.424-3.008-7.377 0-13.365 5.967-13.365 13.345 0 7.36 5.99 13.333 13.366 13.333 7.36 0 13.33-5.972 13.33-13.334 0-2.73-.813-5.268-2.23-7.38l11.4-11.398c1.78-1.866 6.268-3.716 8.856-3.65h9.236c4.052-.065 8.776-2.034 11.674-4.824l4.77-4.78c1.775-1.867 6.263-3.727 8.827-3.66h82.56c2.565-.066 7.065 1.793 8.82 3.66l74.584 74.56c1.856 1.776 3.72 6.265 3.647 8.85V265h4.012zM168.76 142.833c-4.408 0-7.997-3.58-7.997-7.997 0-4.426 3.59-8.017 7.997-8.017 4.44 0 8.015 3.59 8.015 8.016 0 4.416-3.574 7.997-8.015 7.997z"/></g><g fill="#375D81"><path d="M680.91 185.09h25.368c2.624 0 4.76-2.14 4.76-4.75v-25.376c0-2.62-2.136-4.758-4.76-4.758h-25.37c-2.62 0-4.767 2.138-4.767 4.758v10.562h-21.27c-.765-5.084-5.132-8.982-10.456-8.982-5.812 0-10.55 4.73-10.55 10.572 0 5.833 4.737 10.57 10.55 10.57 5.307 0 9.69-3.896 10.455-8.98h21.27v11.635c.002 2.61 2.147 4.75 4.77 4.75zm-34.897-12.16c-3.504 0-6.335-2.83-6.335-6.34s2.83-6.34 6.335-6.34c3.51 0 6.35 2.83 6.35 6.34s-2.84 6.34-6.35 6.34zM763.907 33.897c-5.846 0-10.562 4.728-10.562 10.563 0 5.842 4.716 10.57 10.562 10.57 5.844 0 10.568-4.728 10.568-10.57 0-5.835-4.724-10.563-10.568-10.563zm1.587 16.38c-3.512 0-6.344-2.84-6.344-6.332 0-3.514 2.832-6.353 6.344-6.353 3.507 0 6.347 2.84 6.347 6.353 0 3.492-2.84 6.33-6.346 6.33zM740.118 55.573c-5.84 0-10.574 4.723-10.574 10.562 0 5.837 4.733 10.575 10.574 10.575 5.846 0 10.567-4.738 10.567-10.575 0-5.84-4.72-10.562-10.567-10.562zM741.7 71.96c-3.493 0-6.336-2.85-6.336-6.355 0-3.497 2.843-6.34 6.337-6.34 3.502 0 6.337 2.843 6.337 6.34 0 3.507-2.835 6.354-6.336 6.354zM1030.343 116.37c-5.344 0-9.738 3.96-10.44 9.115H953.3c-2.036.055-5.596-1.43-6.997-2.9L838.826 15.126c-2.282-2.223-6.033-3.776-9.227-3.834h-80.483c-3.213.06-6.962 1.613-9.248 3.835l-34.72 34.707c-1.396 1.48-4.96 2.947-6.992 2.892h-1.386c-2.674 0-6.96.177-9.625.378-1.11.187-1.31.876-1.408 1.082-.254.775-.34 1.586-.372 5.18v22.153c-1.07-.37-2.217-.574-3.41-.574-5.84 0-10.562 4.737-10.562 10.572 0 5.836 4.724 10.575 10.562 10.575 5.85 0 10.57-4.738 10.57-10.575 0-3.353-1.56-6.337-3.99-8.273v-23.88c0-1.53.046-2.543.086-3.18 2.543-.164 5.953-.277 8.148-.277h1.386c3.197-.06 6.933-1.61 9.25-3.837l34.697-34.696c1.4-1.486 4.965-2.957 7.012-2.91H829.6c2.03-.047 5.59 1.424 6.992 2.91l107.46 107.458c2.292 2.21 6.063 3.773 9.247 3.826h66.63c.835 5.015 5.172 8.853 10.413 8.853 5.847 0 10.582-4.733 10.582-10.568 0-5.845-4.736-10.573-10.582-10.573zM689.88 90.985c0 3.5-2.835 6.345-6.322 6.345-3.505 0-6.35-2.843-6.35-6.344 0-3.502 2.845-6.34 6.35-6.34 3.487 0 6.323 2.837 6.323 6.34zm342.067 41.764c-3.512 0-6.355-2.842-6.355-6.348 0-3.5 2.844-6.338 6.355-6.338 3.5 0 6.336 2.84 6.336 6.338 0 3.506-2.835 6.348-6.336 6.348zM601.08 32.31c-5.85 0-10.568 4.727-10.568 10.57 0 5.837 4.72 10.566 10.568 10.566 2.09 0 4.037-.61 5.678-1.656h48.608c-.234.865-.37 1.776-.37 2.72 0 5.842 4.75 10.572 10.577 10.572 5.85 0 10.568-4.73 10.568-10.573 0-5.837-4.718-10.564-10.567-10.564-3.694 0-6.945 1.9-8.838 4.772v-.096H609.94c1.085-1.66 1.704-3.625 1.704-5.742 0-5.843-4.72-10.57-10.564-10.57zm66.074 15.322c3.51 0 6.342 2.847 6.342 6.347 0 3.505-2.833 6.342-6.342 6.342-3.49 0-6.332-2.837-6.332-6.343 0-3.5 2.84-6.348 6.332-6.348zm-63.744.99h-.735v.072c-3.51 0-6.354-2.848-6.354-6.346 0-3.5 2.845-6.337 6.355-6.337 3.49 0 6.322 2.84 6.322 6.338 0 3.252-2.43 5.904-5.587 6.273zM589.98 210h3.178v-97.338H589.98M692.012 43.92c5.827 0 10.555-4.7 10.56-10.522h1.48c2.91-.062 6.355-1.67 8.605-3.833l23.5-23.505c1.403-1.477 4.964-2.96 7-2.892h90.993c2.045-.068 5.596 1.415 6.997 2.892l96.97 96.96c2.3 2.217 6.033 3.777 9.24 3.833h48.315c.994 4.824 5.244 8.46 10.355 8.46 5.857 0 10.583-4.748 10.583-10.58 0-5.843-4.726-10.574-10.583-10.574-5.48 0-9.99 4.175-10.506 9.516h-48.164c-2.037.054-5.606-1.417-7-2.91l-96.96-96.95C841.095 1.6 837.345.05 834.15 0h-90.994c-3.198.05-6.948 1.6-9.244 3.815l-23.506 23.508c-1.44 1.53-4.755 2.96-6.354 2.896h-1.938c-1.334-4.31-5.354-7.435-10.104-7.435-5.85 0-10.568 4.743-10.568 10.573 0 5.835 4.72 10.562 10.57 10.562zm315.61 53.936c3.505 0 6.34 2.848 6.34 6.347 0 3.505-2.835 6.345-6.34 6.345-3.5 0-6.337-2.84-6.337-6.345 0-3.5 2.838-6.347 6.337-6.347zm-314.03-71.363c3.505 0 6.336 2.833 6.336 6.34 0 3.504-2.83 6.337-6.336 6.337-3.49 0-6.34-2.833-6.34-6.337 0-3.507 2.85-6.34 6.34-6.34zM602.128 102.09c0-5.838-4.737-10.572-10.563-10.572-5.85 0-10.564 4.734-10.564 10.57 0 5.834 4.716 10.573 10.565 10.573 5.826.002 10.563-4.737 10.563-10.57zm-8.97 5.814c-3.52 0-6.354-2.84-6.354-6.35 0-3.497 2.833-6.333 6.354-6.333 3.505 0 6.337 2.837 6.337 6.334 0 3.508-2.832 6.35-6.337 6.35z"/><path d="M945.38 210v-68.262c-.06-3.19-1.622-6.94-3.847-9.238L834.677 25.627c-2.294-2.216-6.048-3.765-9.248-3.827H754.25c-3.184.062-6.936 1.61-9.23 3.827l-44.335 44.317.064.056c-1.485 1.83-2.384 4.16-2.384 6.71 0 5.842 4.715 10.58 10.564 10.58 5.826 0 10.576-4.738 10.576-10.58 0-5.816-4.698-10.532-10.518-10.57l38.265-38.26c1.414-1.486 4.96-2.964 6.998-2.91h71.178c2.032-.054 5.604 1.424 6.994 2.91l106.886 106.864c1.463 1.396 2.953 4.96 2.89 6.995V210h3.18zM710.523 69.84c3.49 0 6.34 2.84 6.34 6.347 0 3.507-2.85 6.337-6.34 6.337-3.522 0-6.354-2.83-6.354-6.337 0-3.506 2.832-6.346 6.354-6.346z"/><path d="M892.232 210v-56.37c-.048-3.187-1.604-6.944-3.82-9.242l-23.418-23.4c-2.283-2.22-6.033-3.774-9.23-3.828l-101.822-.725c1.91-1.92 3.097-4.557 3.097-7.47 0-5.845-4.736-10.58-10.568-10.58-5.854 0-10.592 4.735-10.592 10.58 0 5.292 3.894 9.66 8.978 10.442v.133l110.9.78c2.05-.04 5.6 1.432 7.004 2.9l23.41 23.41c1.483 1.406 2.96 4.97 2.882 7V210h3.178zm-144.195-95.225c-3.488 0-6.336-2.836-6.336-6.34 0-3.508 2.85-6.345 6.337-6.345 3.51 0 6.357 2.837 6.357 6.344 0 3.505-2.846 6.34-6.357 6.34zM913.652 210v-67.074c-.042-3.193-1.617-6.95-3.832-9.235l-65.83-65.84c-2.29-2.215-6.048-3.764-9.232-3.815h-84.072v3.162h84.072c2.016-.043 5.59 1.42 6.982 2.9l65.845 65.83c1.478 1.406 2.95 4.97 2.892 7V210h3.175z"/><path d="M786.117 98.385c0-5.843-4.736-10.568-10.585-10.568-5.834 0-10.562 4.726-10.562 10.568 0 5.84 4.73 10.573 10.562 10.573 5.85 0 10.585-4.734 10.585-10.573zm-15.332-.534c0-3.5 2.842-6.335 6.33-6.335 3.513 0 6.354 2.834 6.354 6.336 0 3.5-2.843 6.357-6.355 6.357-3.488 0-6.33-2.855-6.33-6.356zM923.752 210v-73.02c-.046-3.2-1.587-6.95-3.815-9.24l-80.4-80.41c-2.308-2.216-6.06-3.77-9.247-3.823h-55.813v3.179h55.813c2.03-.063 5.584 1.415 6.998 2.892l80.408 80.41c1.473 1.395 2.94 4.95 2.897 6.993V210h3.16zM615.885 210V85.21c4.29-1.343 7.407-5.355 7.407-10.087 0-5.828-4.743-10.573-10.58-10.573-5.846 0-10.584 4.746-10.584 10.573 0 5.844 4.738 10.578 10.583 10.578V210h3.175zM607.95 74.6c0-3.507 2.845-6.34 6.358-6.34 3.5 0 6.33 2.833 6.33 6.34 0 3.495-2.83 6.335-6.317 6.343h-.04c-3.485-.008-6.33-2.848-6.33-6.343z"/><path d="M881.524 210v-50.9c-.045-3.188-1.6-6.95-3.817-9.24l-15.668-15.678c-2.314-2.215-6.05-3.765-9.25-3.824h-76.725v.813c-5.836 0-10.57 4.728-10.57 10.568 0 5.83 4.734 10.573 10.57 10.573 5.847 0 10.568-4.743 10.568-10.572 0-3.317-1.517-6.26-3.904-8.203h70.06c2.03-.06 5.598 1.416 6.99 2.895l15.674 15.677c1.497 1.402 2.967 4.962 2.91 6.993V210h3.16zm-97.535-68.79c0 3.513-2.834 6.343-6.337 6.343-3.505 0-6.355-2.83-6.355-6.343 0-3.5 2.85-6.342 6.355-6.342 3.503 0 6.336 2.843 6.336 6.342zM902.946 210v-61.91c-.056-3.205-1.615-6.957-3.844-9.25L840.02 79.747c-2.284-2.22-6.05-3.773-9.236-3.827H765.36c-3.193.054-6.94 1.61-9.24 3.828l-3.773 3.792c-1.415 1.468-4.96 2.945-7.016 2.892h-7.32c-3.203.053-6.968 1.61-9.25 3.82l-8.92 8.935c-1.826-1.5-4.144-2.382-6.68-2.382-5.847 0-10.59 4.728-10.59 10.574 0 5.833 4.743 10.563 10.59 10.563 5.837 0 10.57-4.73 10.57-10.564 0-2.164-.65-4.174-1.773-5.847l9.036-9.034c1.413-1.483 4.967-2.945 7.018-2.893h7.32c3.215-.052 6.954-1.615 9.25-3.824l3.778-3.79c1.41-1.48 4.963-2.954 7.002-2.9h65.424c2.03-.053 5.6 1.42 6.99 2.9l59.105 59.087c1.464 1.406 2.94 4.963 2.89 7.01V210h3.176zm-188.213-96.81c-3.49 0-6.337-2.838-6.337-6.337 0-3.51 2.846-6.354 6.337-6.354 3.522 0 6.354 2.842 6.354 6.353 0 3.5-2.83 6.337-6.354 6.337z"/></g><g fill="#EEE"><path d="M120.063 302.43v14.678H93.216c-.967-6.415-6.498-11.33-13.19-11.33-7.342 0-13.32 5.978-13.32 13.34 0 7.373 5.978 13.34 13.32 13.34 6.712 0 12.224-4.92 13.19-11.336h26.848v13.33c0 3.307 2.702 6.003 6.01 6.003h32.013c3.312 0 6.01-2.696 6.01-6.003v-32.02c0-3.296-2.698-6-6.01-6h-32.014c-3.307 0-6.01 2.704-6.01 6zM90.05 319.777c0 4.432-3.577 8.005-8.008 8.005-4.42 0-7.992-3.572-7.992-8.004 0-4.426 3.573-7.997 7.992-7.997 4.43 0 8.007 3.57 8.007 7.996zM244.152 473.895c0-7.37-5.97-13.34-13.342-13.34-7.378 0-13.328 5.97-13.328 13.34 0 7.365 5.95 13.332 13.328 13.332 7.373 0 13.342-5.967 13.342-13.332zm-3.334.653c0 4.432-3.574 8.013-8 8.013-4.436 0-8.01-3.58-8.01-8.012 0-4.41 3.574-7.992 8.01-7.992 4.426 0 8 3.582 8 7.992zM214.13 446.545c0-7.368-5.962-13.347-13.34-13.347-7.367 0-13.337 5.98-13.337 13.347 0 7.365 5.97 13.33 13.338 13.33 7.378 0 13.34-5.965 13.34-13.33zm-3.344.666c0 4.415-3.58 8.003-7.995 8.003s-7.995-3.588-7.995-8.002c0-4.423 3.58-8.014 7.996-8.014 4.415 0 7.996 3.59 7.996 8.015z"/><path d="M580.38 369.815c0-7.363-5.976-13.34-13.355-13.34-6.607 0-12.088 4.846-13.14 11.175h-84.08c-4.02.068-8.778 2.038-11.67 4.83l-135.6 135.598c-1.774 1.876-6.26 3.735-8.823 3.67H212.144c-2.58.065-7.076-1.794-8.848-3.67l-43.785-43.78c-2.92-2.812-7.636-4.77-11.67-4.845h-1.74c-2.772 0-7.08-.145-10.29-.35-.05-.805-.108-2.08-.108-4.016v-30.132c3.073-2.44 5.04-6.207 5.04-10.438 0-7.367-5.96-13.347-13.344-13.347-7.363 0-13.33 5.98-13.33 13.347 0 7.363 5.967 13.342 13.33 13.342 1.51 0 2.956-.26 4.31-.726v27.952c.03 4.536.144 5.56.47 6.535.12.26.364 1.133 1.77 1.37 3.36.252 8.77.478 12.15.478h1.742c2.566-.073 7.06 1.78 8.822 3.65l43.812 43.794c2.893 2.802 7.62 4.767 11.67 4.838H313.71c4.027-.07 8.758-2.036 11.643-4.837l135.622-135.607c1.773-1.855 6.26-3.73 8.83-3.655h84.042c.89 6.504 6.44 11.504 13.178 11.504 7.38 0 13.354-5.966 13.354-13.34zm-450.964 53.368c-4.422 0-8.008-3.576-8.008-8 0-4.414 3.586-8.005 8.008-8.005 4.4 0 7.984 3.59 7.984 8.005 0 4.423-3.583 8-7.984 8zm447.63-52.692c0 4.42-3.58 8-7.993 8-4.436 0-8.018-3.58-8.018-8 0-4.423 3.582-8.01 8.018-8.01 4.414 0 7.994 3.587 7.994 8.01zM38.676 475.893c0-2.675-.786-5.153-2.15-7.245H95.57v-.125c2.393 3.623 6.488 6.025 11.152 6.025 7.385 0 13.34-5.966 13.34-13.332 0-7.372-5.955-13.344-13.34-13.344-7.354 0-13.342 5.972-13.342 13.344 0 1.188.164 2.337.467 3.432H32.504c-2.07-1.32-4.524-2.094-7.162-2.094-7.385 0-13.342 5.97-13.342 13.34s5.957 13.334 13.342 13.334c7.375 0 13.334-5.965 13.334-13.335zm62.057-14.01c0-4.424 3.576-8.002 7.985-8.002 4.43 0 8.007 3.58 8.007 8.003 0 4.418-3.576 8.01-8.007 8.01-4.408 0-7.985-3.592-7.985-8.01zm-65.4 14.68c0 4.415-3.574 7.996-7.983 7.996-4.434 0-8.017-3.582-8.017-7.998s3.583-8.007 8.017-8.007v.093h.926c3.983.465 7.056 3.808 7.056 7.914zM11.326 265h4.015v122.83H11.327"/><path d="M126.746 487.902c0 7.36 5.957 13.342 13.342 13.342 5.988 0 11.06-3.943 12.744-9.38h2.454c2.016-.08 6.192 1.728 8.015 3.658l29.665 29.662c2.897 2.797 7.627 4.752 11.66 4.815h114.828c4.03-.064 8.76-2.02 11.666-4.816l122.353-122.342c1.76-1.883 6.263-3.742 8.84-3.672h60.772c.652 6.738 6.34 12.01 13.262 12.01 7.387 0 13.355-5.972 13.355-13.344 0-7.358-5.97-13.35-13.355-13.35-6.453 0-11.82 4.585-13.066 10.677h-60.967c-4.054.066-8.77 2.036-11.67 4.835L328.286 522.353c-1.773 1.864-6.256 3.733-8.832 3.65H204.626c-2.57.083-7.06-1.786-8.835-3.65l-29.655-29.662c-2.834-2.73-7.182-4.755-10.85-4.834h-1.875c-.008-7.348-5.967-13.28-13.322-13.28-7.385 0-13.342 5.963-13.342 13.326zm403.613-89.4c0-4.42 3.585-8.004 7.995-8.004 4.42 0 8.002 3.583 8.002 8.005 0 4.418-3.582 8.01-8.002 8.01-4.41 0-7.996-3.592-7.996-8.01zM134.08 488.57c0-4.42 3.595-7.997 8.004-7.997 4.42 0 7.994 3.577 7.994 7.998 0 4.426-3.573 8.002-7.994 8.002-4.41 0-8.005-3.576-8.005-8.002zM13.334 387.83C5.95 387.83 0 393.812 0 401.172c0 7.368 5.95 13.34 13.334 13.34 7.354 0 13.332-5.972 13.332-13.34 0-7.36-5.978-13.342-13.332-13.342zm10.002 14.02c0 4.412-3.574 7.988-7.995 7.988-4.44 0-8.016-3.576-8.016-7.99 0-4.428 3.576-8.014 8.017-8.014 4.422 0 7.996 3.586 7.996 8.015z"/><path d="M455.795 265v86.14c.08 2.568-1.795 7.066-3.646 8.83L317.27 494.817c-1.752 1.876-6.26 3.742-8.826 3.672H218.63c-2.576.07-7.05-1.796-8.834-3.673l-48.285-48.28c7.342-.048 13.272-5.997 13.272-13.338 0-7.37-5.988-13.348-13.342-13.348-7.385 0-13.334 5.977-13.334 13.347 0 3.217 1.132 6.16 3.015 8.47l-.082.065 55.94 55.924c2.897 2.796 7.63 4.75 11.652 4.83h89.814c4.04-.08 8.775-2.033 11.67-4.83l134.85-134.86c2.8-2.9 4.773-7.63 4.845-11.66V265h-4.015zM155.428 433.86c0-4.427 3.576-7.998 8.018-7.998 4.408 0 8.004 3.57 8.004 7.997 0 4.423-3.596 8.006-8.004 8.006-4.442 0-8.018-3.583-8.018-8.007z"/><path d="M388.738 265v71.132c.094 2.562-1.768 7.062-3.642 8.832l-29.537 29.542c-1.78 1.856-6.26 3.71-8.846 3.66l-139.943.983v.168c-6.413.99-11.322 6.5-11.322 13.178 0 7.378 5.98 13.352 13.356 13.352 7.365 0 13.34-5.974 13.34-13.352 0-3.674-1.494-7.005-3.907-9.428l128.492-.91c4.028-.07 8.758-2.03 11.645-4.833l29.547-29.53c2.8-2.9 4.762-7.64 4.828-11.663V265h-4.012zm-169.93 128.168c0 4.426-3.588 8.005-8.02 8.004-4.404 0-7.996-3.578-7.996-8.004 0-4.422 3.592-8.005 7.995-8.005 4.433 0 8.022 3.583 8.022 8.005z"/><path d="M419.772 265v84.643c-.054 4.028-2.04 8.77-4.833 11.653l-83.07 83.088c-2.89 2.793-7.634 4.748-11.657 4.813H214.13v-3.995h106.083c2.55.06 7.063-1.787 8.82-3.656l83.085-83.07c1.864-1.776 3.718-6.272 3.647-8.833V265h4.007z"/><path d="M245.477 392.506c-7.353 0-13.33 5.972-13.33 13.343 0 7.37 5.978 13.333 13.33 13.333 7.385 0 13.36-5.962 13.36-13.334s-5.976-13.344-13.36-13.344zm2.002 5.996c4.437 0 8.016 3.6 8.016 8.02 0 4.417-3.58 7.997-8.017 7.997-4.405 0-7.983-3.58-7.983-7.997 0-4.42 3.577-8.02 7.982-8.02zM432.523 265v92.143c-.06 4.042-2.008 8.773-4.815 11.663L326.245 470.274c-2.905 2.797-7.642 4.757-11.67 4.822h-70.423V471.084h70.424c2.56.08 7.052-1.785 8.835-3.65L424.876 365.97c1.855-1.764 3.718-6.25 3.66-8.827V265h3.988zM40.02 265v156.854c-7.374 0-13.353 5.972-13.353 13.345 0 7.356 5.98 13.343 13.354 13.343 7.363 0 13.353-5.986 13.353-13.344 0-5.968-3.93-11.033-9.35-12.73V265H40.02zm1.974 162.86h.052c4.4.008 7.973 3.59 7.973 8 0 4.426-3.574 8.005-7.983 8.005-4.44 0-8.026-3.58-8.026-8.005 0-4.41 3.586-7.992 7.984-8z"/><path d="M375.248 265v64.23c.065 2.565-1.783 7.056-3.672 8.826l-19.78 19.78c-1.76 1.867-6.26 3.73-8.823 3.655H254.56c3.02-2.453 4.933-6.167 4.933-10.353 0-7.355-5.962-13.342-13.342-13.342-7.356 0-13.33 5.986-13.33 13.342 0 7.37 5.974 13.334 13.33 13.334v1.03h96.823c4.038-.073 8.756-2.03 11.673-4.825l19.77-19.786c2.802-2.894 4.76-7.636 4.82-11.66V265h-3.988zM248.16 359.81c-4.42 0-8.018-3.59-8.018-8.005 0-4.43 3.598-8.002 8.02-8.002 4.416 0 7.994 3.57 7.994 8.002 0 4.416-3.578 8.005-7.995 8.005z"/><path d="M402.252 265v78.124c.073 2.584-1.79 7.072-3.647 8.848l-74.583 74.562c-1.756 1.866-6.256 3.726-8.82 3.66H232.64c-2.564.065-7.052-1.794-8.827-3.66l-4.77-4.78c-2.897-2.79-7.622-4.76-11.674-4.826h-9.237c-2.59.066-7.076-1.783-8.857-3.65l-11.398-11.398c1.415-2.11 2.23-4.65 2.23-7.378 0-7.362-5.97-13.334-13.33-13.334-7.378 0-13.366 5.972-13.366 13.334 0 7.378 5.988 13.345 13.365 13.345 3.197 0 6.12-1.115 8.424-3.008l11.26 11.275c2.884 2.787 7.628 4.75 11.675 4.818h9.236c2.598-.07 7.07 1.796 8.856 3.65l4.76 4.782c2.906 2.803 7.63 4.762 11.655 4.83h82.563c4.024-.068 8.773-2.027 11.66-4.83l74.558-74.566c2.81-2.894 4.777-7.628 4.844-11.675V265h-4.012zM176.774 395.164c0 4.426-3.573 8.017-8.015 8.017-4.41 0-7.998-3.59-7.998-8.016 0-4.416 3.59-7.997 7.997-7.997 4.44 0 8.014 3.58 8.014 7.997z"/></g><g fill="#EEE"><path d="M676.142 239.66v11.637H654.87c-.764-5.085-5.148-8.98-10.455-8.98-5.812 0-10.55 4.737-10.55 10.568 0 5.843 4.737 10.574 10.55 10.574 5.324 0 9.69-3.907 10.455-8.983h21.272v10.562c0 2.613 2.146 4.757 4.768 4.757h25.37c2.623 0 4.76-2.144 4.76-4.758v-25.38c0-2.61-2.137-4.75-4.76-4.75h-25.37c-2.623 0-4.768 2.14-4.768 4.75zm-23.78 13.75c0 3.51-2.84 6.342-6.35 6.342-3.504 0-6.335-2.83-6.335-6.342 0-3.507 2.83-6.337 6.335-6.337 3.51 0 6.35 2.83 6.35 6.337zM774.476 375.54c0-5.843-4.725-10.568-10.568-10.568-5.846 0-10.562 4.726-10.562 10.567 0 5.84 4.716 10.562 10.562 10.562 5.843 0 10.568-4.723 10.568-10.563zm-2.635.515c0 3.51-2.84 6.353-6.346 6.353-3.512 0-6.344-2.843-6.344-6.353 0-3.49 2.832-6.335 6.344-6.335 3.507 0 6.347 2.843 6.347 6.335zM750.686 353.864c0-5.84-4.722-10.578-10.567-10.578-5.842 0-10.575 4.737-10.575 10.578 0 5.84 4.733 10.562 10.574 10.562 5.844 0 10.566-4.722 10.566-10.562zm-2.65.53c0 3.494-2.834 6.34-6.335 6.34-3.493 0-6.336-2.846-6.336-6.34 0-3.505 2.843-6.353 6.337-6.353 3.502 0 6.337 2.85 6.337 6.355z"/><path d="M1040.925 293.06c0-5.83-4.735-10.567-10.582-10.567-5.24 0-9.578 3.838-10.414 8.856H953.3c-3.185.05-6.956 1.608-9.25 3.822L836.593 402.63c-1.4 1.48-4.96 2.956-6.992 2.91h-80.482c-2.047.046-5.61-1.43-7.012-2.91l-34.698-34.697c-2.316-2.23-6.052-3.777-9.25-3.837h-1.385c-2.195 0-5.605-.118-8.148-.28-.04-.638-.085-1.647-.085-3.182v-23.876c2.43-1.932 3.988-4.92 3.988-8.27 0-5.84-4.72-10.577-10.57-10.577-5.838 0-10.56 4.738-10.56 10.58 0 5.83 4.723 10.567 10.56 10.567 1.194 0 2.342-.205 3.41-.574v22.15c.032 3.6.12 4.407.372 5.183.1.205.297.898 1.408 1.085 2.664.195 6.95.376 9.625.376h1.386c2.03-.06 5.595 1.413 6.99 2.892l34.72 34.703c2.286 2.228 6.035 3.785 9.248 3.836H829.6c3.193-.05 6.944-1.608 9.227-3.826l107.477-107.47c1.4-1.465 4.96-2.954 6.996-2.895h66.604c.702 5.15 5.097 9.12 10.44 9.12 5.845 0 10.58-4.732 10.58-10.575zm-357.367 42.29c-3.505 0-6.35-2.833-6.35-6.34 0-3.493 2.845-6.34 6.35-6.34 3.487 0 6.323 2.847 6.323 6.34 0 3.507-2.835 6.34-6.322 6.34zm354.725-41.756c0 3.504-2.835 6.34-6.336 6.34-3.512 0-6.355-2.836-6.355-6.34 0-3.506 2.844-6.344 6.355-6.344 3.5 0 6.336 2.838 6.336 6.344zM611.645 377.12c0-2.116-.62-4.082-1.703-5.74h46.794v-.102c1.893 2.87 5.144 4.776 8.838 4.776 5.85 0 10.568-4.724 10.568-10.563 0-5.842-4.72-10.576-10.568-10.576-5.826 0-10.576 4.734-10.576 10.577 0 .943.135 1.85.37 2.724h-48.61c-1.64-1.046-3.586-1.66-5.677-1.66-5.85 0-10.567 4.725-10.567 10.567 0 5.843 4.72 10.565 10.568 10.565 5.845 0 10.565-4.722 10.565-10.564zm49.177-11.1c0-3.505 2.84-6.34 6.332-6.34 3.51 0 6.342 2.835 6.342 6.34 0 3.504-2.833 6.344-6.342 6.344-3.49 0-6.332-2.84-6.332-6.343zm-51.825 11.632c0 3.502-2.83 6.337-6.322 6.337-3.51 0-6.354-2.836-6.354-6.338 0-3.503 2.845-6.342 6.355-6.342v.068h.735c3.157.37 5.587 3.018 5.587 6.274zM589.98 210h3.178v97.334H589.98"/><path d="M681.443 386.638c0 5.837 4.72 10.576 10.568 10.576 4.75 0 8.77-3.13 10.105-7.438h1.938c1.6-.062 4.913 1.372 6.354 2.905l23.506 23.505c2.296 2.216 6.046 3.77 9.244 3.815h90.994c3.196-.047 6.946-1.6 9.247-3.815l96.96-96.954c1.395-1.485 4.964-2.96 7-2.902h48.166c.515 5.337 5.024 9.517 10.506 9.517 5.856 0 10.582-4.733 10.582-10.577 0-5.828-4.726-10.58-10.583-10.58-5.112 0-9.362 3.632-10.356 8.465H947.36c-3.208.048-6.942 1.607-9.24 3.832l-96.97 96.952c-1.402 1.485-4.953 2.965-6.998 2.9h-90.994c-2.035.064-5.596-1.415-6.998-2.9l-23.502-23.504c-2.25-2.16-5.695-3.763-8.604-3.833h-1.482c-.004-5.815-4.73-10.522-10.56-10.522-5.85-.002-10.57 4.73-10.57 10.56zm319.842-70.84c0-3.506 2.838-6.35 6.337-6.35 3.505 0 6.34 2.844 6.34 6.35 0 3.494-2.835 6.342-6.34 6.342-3.5 0-6.337-2.848-6.337-6.343zm-314.034 71.37c0-3.506 2.852-6.338 6.342-6.338 3.505 0 6.336 2.832 6.336 6.337 0 3.507-2.83 6.34-6.336 6.34-3.49 0-6.34-2.833-6.34-6.34zM591.564 307.334c-5.85 0-10.564 4.74-10.564 10.577 0 5.842 4.715 10.568 10.564 10.568 5.826 0 10.563-4.727 10.563-10.567 0-5.837-4.736-10.576-10.563-10.576zm7.93 11.11c0 3.502-2.83 6.335-6.336 6.335-3.52 0-6.354-2.834-6.354-6.335 0-3.508 2.833-6.354 6.354-6.354 3.505.002 6.337 2.848 6.337 6.355z"/><path d="M942.2 210v68.265c.06 2.034-1.43 5.6-2.892 6.996L832.423 392.116c-1.39 1.49-4.962 2.97-6.994 2.91H754.25c-2.037.06-5.584-1.42-6.998-2.91L708.99 353.86c5.818-.04 10.517-4.755 10.517-10.574 0-5.835-4.75-10.57-10.576-10.57-5.85 0-10.563 4.735-10.563 10.57 0 2.555.898 4.88 2.385 6.717l-.064.05 44.334 44.315c2.296 2.216 6.048 3.77 9.23 3.83h71.178c3.2-.06 6.954-1.613 9.248-3.83L941.533 287.5c2.225-2.298 3.787-6.048 3.846-9.235V210h-3.18zM704.17 343.813c0-3.507 2.832-6.337 6.354-6.337 3.49 0 6.34 2.83 6.34 6.337 0 3.506-2.85 6.342-6.34 6.342-3.522 0-6.354-2.836-6.354-6.342z"/><path d="M889.054 210v56.37c.077 2.032-1.398 5.6-2.88 6.998l-23.412 23.406c-1.404 1.474-4.953 2.945-7.003 2.904l-110.902.78v.13c-5.084.79-8.978 5.157-8.978 10.448 0 5.847 4.738 10.58 10.592 10.58 5.832.002 10.567-4.733 10.567-10.58 0-2.91-1.188-5.553-3.098-7.477l101.823-.72c3.195-.06 6.945-1.606 9.23-3.833l23.416-23.4c2.22-2.297 3.774-6.053 3.822-9.237V210h-3.178zm-134.66 101.57c0 3.507-2.846 6.34-6.356 6.34-3.488 0-6.336-2.833-6.336-6.34 0-3.505 2.848-6.35 6.336-6.35 3.51.002 6.357 2.845 6.357 6.35z"/><path d="M913.652 210v67.077c-.042 3.188-1.617 6.95-3.832 9.232l-65.83 65.846c-2.29 2.214-6.048 3.76-9.232 3.814h-84.072v-3.17h84.072c2.016.052 5.59-1.416 6.982-2.896l65.845-65.83c1.478-1.41 2.95-4.967 2.892-6.997V210h3.175z"/><path d="M775.532 311.042c-5.834 0-10.562 4.734-10.562 10.577 0 5.834 4.73 10.563 10.562 10.563 5.85 0 10.585-4.73 10.585-10.564 0-5.844-4.736-10.578-10.585-10.578zm1.583 4.754c3.513 0 6.354 2.853 6.354 6.356 0 3.495-2.843 6.337-6.355 6.337-3.488 0-6.33-2.843-6.33-6.338 0-3.504 2.842-6.356 6.33-6.356zM923.752 210v73.022c-.046 3.2-1.587 6.952-3.815 9.237l-80.4 80.408c-2.308 2.216-6.06 3.77-9.247 3.82h-55.813V373.307h55.813c2.03.07 5.584-1.414 6.998-2.892l80.408-80.4c1.473-1.404 2.94-4.957 2.897-6.994V210h3.16zM612.71 210v124.3c-5.844 0-10.582 4.733-10.582 10.577 0 5.828 4.738 10.57 10.583 10.57 5.84 0 10.582-4.742 10.582-10.57 0-4.732-3.116-8.748-7.407-10.088V210h-3.174zm1.57 129.058h.04c3.487.004 6.318 2.848 6.318 6.34 0 3.506-2.83 6.348-6.33 6.348-3.514 0-6.36-2.842-6.36-6.35 0-3.49 2.847-6.334 6.332-6.338z"/><path d="M878.365 210v50.9c.056 2.03-1.414 5.594-2.91 6.993l-15.674 15.673c-1.393 1.486-4.96 2.963-6.99 2.902h-70.06c2.387-1.946 3.903-4.894 3.903-8.204 0-5.835-4.722-10.576-10.568-10.576-5.836 0-10.57 4.74-10.57 10.576 0 5.834 4.734 10.564 10.57 10.564v.817h76.725c3.2-.06 6.936-1.613 9.25-3.828l15.667-15.675c2.218-2.294 3.772-6.05 3.817-9.243V210h-3.16zm-100.712 75.136c-3.505 0-6.355-2.847-6.355-6.35 0-3.51 2.85-6.34 6.355-6.34 3.503 0 6.336 2.83 6.336 6.34 0 3.503-2.834 6.35-6.337 6.35z"/><path d="M899.77 210v61.91c.05 2.05-1.427 5.603-2.892 7.013l-59.104 59.086c-1.393 1.477-4.96 2.95-6.99 2.895h-65.425c-2.04.056-5.593-1.42-7.003-2.896l-3.777-3.792c-2.297-2.213-6.036-3.772-9.25-3.82h-7.32c-2.05.048-5.604-1.414-7.018-2.892l-9.036-9.038c1.124-1.668 1.772-3.68 1.772-5.846 0-5.83-4.732-10.564-10.57-10.564-5.846 0-10.588 4.734-10.588 10.564 0 5.846 4.742 10.578 10.588 10.578 2.537 0 4.854-.884 6.68-2.382l8.92 8.93c2.283 2.21 6.048 3.768 9.252 3.817h7.32c2.055-.05 5.6 1.428 7.016 2.892l3.773 3.792c2.3 2.226 6.046 3.772 9.24 3.83h65.423c3.186-.058 6.952-1.605 9.236-3.83l59.082-59.09c2.23-2.293 3.788-6.045 3.844-9.25V210h-3.177zM721.086 313.15c0 3.508-2.83 6.355-6.354 6.355-3.49 0-6.337-2.848-6.337-6.354 0-3.502 2.846-6.337 6.337-6.337 3.523 0 6.354 2.835 6.354 6.338z"/></g></svg>