<svg xmlns="http://www.w3.org/2000/svg" width="1041" height="530" viewBox="0 0 1041 530"><g opacity=".1"><path d="M126.072 233.568h32.014c3.312 0 6.01-2.704 6.01-6v-32.02c0-3.307-2.698-6.003-6.01-6.003h-32.014c-3.307 0-6.01 2.696-6.01 6.003v13.33H93.217c-.967-6.415-6.48-11.336-13.19-11.336-7.342 0-13.32 5.967-13.32 13.34 0 7.362 5.978 13.34 13.32 13.34 6.692 0 12.224-4.915 13.19-11.33h26.848v14.677c0 3.293 2.702 5.997 6.008 5.997zm-44.03-15.347c-4.42 0-7.992-3.57-7.992-7.995 0-4.432 3.573-8.005 7.992-8.005 4.43 0 8.007 3.572 8.007 8.004 0 4.425-3.578 7.997-8.008 7.997zM230.81 42.774c-7.377 0-13.327 5.967-13.327 13.332 0 7.37 5.95 13.34 13.328 13.34 7.374 0 13.344-5.97 13.344-13.34 0-7.365-5.97-13.332-13.342-13.332h-.002zm2.008 20.67c-4.436 0-8.01-3.58-8.01-7.99 0-4.433 3.574-8.014 8.01-8.014 4.426 0 8 3.58 8 8.01 0 4.41-3.574 7.993-8 7.993zm-32.028 6.683c-7.367 0-13.337 5.964-13.337 13.33 0 7.367 5.97 13.346 13.338 13.346 7.38 0 13.34-5.98 13.34-13.347 0-7.365-5.96-13.33-13.34-13.33zm2 20.678c-4.415 0-7.995-3.59-7.995-8.015 0-4.416 3.58-8.004 7.996-8.004s7.997 3.588 7.997 8.002c0 4.423-3.58 8.014-7.995 8.014l-.002.002zm364.235 56.04c-6.736 0-12.287 5-13.18 11.504h-84.04c-2.57.073-7.058-1.8-8.83-3.655L325.354 19.085c-2.887-2.8-7.616-4.766-11.644-4.837H212.145c-4.05.07-8.776 2.036-11.67 4.838l-43.81 43.795c-1.765 1.87-6.257 3.725-8.823 3.65h-1.74c-3.38 0-8.79.227-12.15.48-1.406.236-1.65 1.11-1.77 1.37-.326.973-.44 1.997-.47 6.533v27.952c-1.354-.465-2.8-.725-4.31-.725-7.363 0-13.33 5.978-13.33 13.34 0 7.368 5.967 13.348 13.33 13.348 7.385 0 13.344-5.98 13.344-13.347 0-4.23-1.967-7.995-5.04-10.436V74.91c0-1.934.06-3.21.11-4.016 3.208-.204 7.517-.35 10.287-.35h1.74c4.036-.074 8.75-2.03 11.673-4.844l43.785-43.78c1.77-1.876 6.27-3.735 8.848-3.67h101.568c2.564-.065 7.05 1.794 8.822 3.67l135.602 135.6c2.89 2.792 7.647 4.762 11.67 4.83h84.08c1.05 6.33 6.53 11.175 13.14 11.175 7.38 0 13.354-5.977 13.354-13.34 0-7.373-5.977-13.34-13.357-13.34zM137.4 114.818c0 4.414-3.583 8.005-7.984 8.005-4.422 0-8.008-3.59-8.008-8.005 0-4.424 3.586-8 8.008-8 4.4 0 7.984 3.577 7.984 8zm431.653 52.704c-4.436 0-8.018-3.586-8.018-8.01 0-4.42 3.582-8 8.018-8 4.414 0 7.994 3.58 7.994 8 0 4.424-3.58 8.01-7.994 8.01zM25.343 40.773C17.956 40.772 12 46.737 12 54.107s5.957 13.34 13.342 13.34c2.638 0 5.092-.775 7.162-2.095h61.344c-.303 1.095-.467 2.243-.467 3.432 0 7.372 5.99 13.344 13.344 13.344 7.385 0 13.34-5.972 13.34-13.344 0-7.366-5.955-13.332-13.34-13.332-4.664 0-8.76 2.402-11.152 6.025v-.125H36.526c1.364-2.092 2.15-4.57 2.15-7.245 0-7.37-5.958-13.335-13.334-13.335zm83.376 19.336c4.43 0 8.005 3.59 8.005 8.01 0 4.423-3.576 8-8.007 8-4.41 0-7.986-3.577-7.986-8 0-4.42 3.576-8.01 7.985-8.01h.002zm-80.446 1.245h-.925v.093c-4.435 0-8.018-3.59-8.018-8.007s3.583-8 8.017-8c4.41 0 7.98 3.58 7.98 7.998 0 4.104-3.072 7.447-7.056 7.913v.003zM11.326 265h4.015V142.17h-4.013m128.76-86.745c7.356 0 13.315-5.933 13.323-13.28h1.876c3.667-.08 8.015-2.104 10.85-4.835L195.79 7.648c1.777-1.864 6.265-3.733 8.836-3.65h114.827c2.576-.083 7.06 1.786 8.832 3.65l122.36 122.354c2.9 2.8 7.613 4.77 11.668 4.835h60.968c1.248 6.092 6.614 10.677 13.067 10.677 7.388 0 13.355-5.99 13.355-13.35 0-7.372-5.97-13.344-13.355-13.344-6.922 0-12.61 5.27-13.262 12.01h-60.77c-2.578.07-7.08-1.79-8.842-3.672L331.12 4.815C328.21 2.018 323.48.063 319.452 0H204.626c-4.034.063-8.764 2.02-11.66 4.815L163.3 34.477c-1.82 1.93-5.998 3.738-8.014 3.66h-2.454c-1.684-5.44-6.756-9.382-12.744-9.382-7.385 0-13.342 5.98-13.342 13.342 0 7.364 5.957 13.328 13.342 13.328zm398.268 68.062c4.42 0 8.002 3.592 8.002 8.01 0 4.422-3.582 8.005-8.002 8.005-4.41 0-7.996-3.583-7.996-8.005 0-4.418 3.584-8.01 7.993-8.01h.002zM142.085 33.43c4.42 0 7.993 3.576 7.993 8.002 0 4.42-3.573 7.997-7.994 7.997-4.41 0-8.005-3.578-8.005-8 0-4.425 3.594-8 8.003-8h.002zm-115.42 95.398c0-7.368-5.98-13.34-13.33-13.34C5.95 115.488 0 121.46 0 128.828c0 7.36 5.95 13.342 13.334 13.342 7.354 0 13.332-5.982 13.332-13.342zm-11.324 7.338c-4.44 0-8.015-3.586-8.015-8.015 0-4.41 3.576-7.987 8.017-7.987 4.422 0 7.996 3.576 7.996 7.99 0 4.428-3.574 8.014-7.995 8.014h-.002z"/><path d="M459.808 265v-86.14c-.07-4.028-2.046-8.758-4.845-11.658l-134.85-134.86c-2.896-2.798-7.63-4.752-11.67-4.83H218.63c-4.022.078-8.757 2.033-11.652 4.83l-55.94 55.924.082.066c-1.883 2.31-3.015 5.252-3.015 8.47 0 7.37 5.95 13.347 13.334 13.347 7.352 0 13.34-5.98 13.34-13.35 0-7.34-5.93-13.29-13.27-13.336l48.284-48.28c1.783-1.878 6.258-3.744 8.834-3.674h89.813c2.566-.07 7.074 1.797 8.825 3.673l134.88 134.85c1.853 1.762 3.727 6.26 3.647 8.828V265h4.016zM163.445 88.134c4.408 0 8.004 3.583 8.004 8.007 0 4.428-3.598 8-8.006 8-4.44 0-8.018-3.57-8.018-7.998 0-4.423 3.577-8.006 8.018-8.006v-.002z"/><path d="M392.75 265v-71.132c-.065-4.023-2.027-8.764-4.827-11.664l-29.547-29.53c-2.888-2.8-7.617-4.76-11.646-4.83l-128.493-.912c2.413-2.423 3.907-5.754 3.907-9.428 0-7.378-5.975-13.353-13.34-13.352-7.377 0-13.356 5.974-13.356 13.352 0 6.677 4.908 12.188 11.322 13.178v.17l139.943.983c2.586-.052 7.066 1.803 8.845 3.66l29.537 29.54c1.874 1.772 3.735 6.27 3.643 8.833V265h4.012zM210.787 144.837c-4.403 0-7.995-3.583-7.995-8.005 0-4.426 3.593-8.004 7.996-8.004 4.434 0 8.022 3.578 8.022 8.004 0 4.422-3.588 8.005-8.023 8.005zM419.772 265v-84.643c-.055-4.028-2.04-8.77-4.833-11.653l-83.07-83.088c-2.892-2.793-7.635-4.748-11.658-4.813H214.13v3.995h106.083c2.55-.06 7.063 1.787 8.82 3.656l83.085 83.07c1.864 1.776 3.718 6.272 3.646 8.833V265h4.008z"/><path d="M258.836 124.15c0-7.37-5.975-13.333-13.36-13.333-7.352 0-13.328 5.962-13.328 13.334s5.977 13.345 13.33 13.345c7.383 0 13.358-5.972 13.358-13.343v-.002zm-19.34-.672c0-4.416 3.578-7.996 7.982-7.996 4.438 0 8.017 3.58 8.017 7.996 0 4.42-3.58 8.02-8.017 8.02-4.404 0-7.982-3.6-7.982-8.02zM432.523 265v-92.143c-.06-4.042-2.01-8.773-4.815-11.663L326.245 59.726c-2.905-2.797-7.643-4.757-11.67-4.822h-70.423v4.012h70.424c2.56-.08 7.052 1.785 8.835 3.65L424.877 164.03c1.855 1.764 3.718 6.25 3.66 8.827V265h3.987zm-388.5 0V107.528c5.42-1.695 9.35-6.76 9.35-12.728 0-7.357-5.99-13.344-13.353-13.344-7.375 0-13.354 5.986-13.354 13.344 0 7.373 5.98 13.345 13.354 13.345V265h4.002zM34.01 94.14c0-4.426 3.586-8.005 8.026-8.005 4.41 0 7.982 3.58 7.982 8.005 0 4.41-3.573 7.992-7.973 8h-.052c-4.397-.008-7.983-3.59-7.983-8z"/><path d="M379.235 265v-64.23c-.06-4.025-2.02-8.768-4.82-11.66l-19.77-19.786c-2.918-2.795-7.636-4.752-11.674-4.825h-96.82v1.027c-7.357 0-13.332 5.964-13.332 13.334 0 7.356 5.975 13.343 13.332 13.343 7.38 0 13.342-5.986 13.342-13.342 0-4.185-1.913-7.9-4.933-10.353h88.41c2.565-.076 7.064 1.788 8.823 3.654l19.78 19.78c1.89 1.773 3.737 6.263 3.673 8.827V265h3.99zm-123.08-86.805c0 4.43-3.577 8.002-7.994 8.002-4.42 0-8.017-3.57-8.017-8.002 0-4.416 3.598-8.005 8.02-8.005 4.416 0 7.994 3.59 7.994 8.005h-.002zM406.262 265v-78.124c-.065-4.047-2.035-8.78-4.843-11.674l-74.56-74.566c-2.888-2.803-7.637-4.762-11.66-4.83h-82.56c-4.024.068-8.75 2.027-11.654 4.83l-4.76 4.783c-1.787 1.852-6.26 3.717-8.856 3.647h-9.236c-4.047.07-8.79 2.03-11.676 4.818L175.2 125.162c-2.303-1.893-5.227-3.008-8.424-3.008-7.377 0-13.365 5.967-13.365 13.345 0 7.36 5.99 13.332 13.367 13.332 7.36 0 13.33-5.972 13.33-13.334 0-2.73-.813-5.268-2.23-7.38l11.4-11.398c1.78-1.866 6.268-3.716 8.856-3.65h9.236c4.05-.065 8.775-2.034 11.673-4.824l4.77-4.78c1.775-1.867 6.263-3.727 8.827-3.66h82.56c2.564-.066 7.064 1.793 8.82 3.66l74.583 74.56c1.856 1.776 3.72 6.265 3.647 8.85V265h4.012zM168.76 142.833c-4.408 0-7.997-3.58-7.997-7.997 0-4.426 3.59-8.017 7.997-8.017 4.44 0 8.015 3.59 8.015 8.015 0 4.416-3.574 7.997-8.015 7.998z"/></g><g opacity=".1"><path d="M680.91 185.09h25.368c2.624 0 4.76-2.14 4.76-4.75v-25.376c0-2.62-2.136-4.758-4.76-4.758h-25.37c-2.62 0-4.768 2.138-4.768 4.758v10.562h-21.27c-.766-5.084-5.132-8.982-10.456-8.982-5.812 0-10.55 4.73-10.55 10.572 0 5.833 4.736 10.57 10.55 10.57 5.307 0 9.69-3.896 10.455-8.98h21.27v11.635c.002 2.61 2.147 4.75 4.77 4.75zm-34.897-12.16c-3.504 0-6.335-2.83-6.335-6.34s2.83-6.34 6.335-6.34c3.51 0 6.35 2.83 6.35 6.34s-2.84 6.34-6.35 6.34zM763.907 33.897c-5.847 0-10.562 4.728-10.562 10.563 0 5.842 4.716 10.57 10.562 10.57 5.844 0 10.567-4.73 10.567-10.57 0-5.835-4.723-10.563-10.567-10.563zm1.587 16.38c-3.512 0-6.344-2.84-6.344-6.332 0-3.514 2.832-6.353 6.344-6.353 3.507 0 6.347 2.84 6.347 6.353 0 3.492-2.84 6.33-6.345 6.33v.002zm-25.376 5.296c-5.84 0-10.574 4.723-10.574 10.562 0 5.837 4.733 10.575 10.574 10.575 5.846 0 10.566-4.738 10.566-10.575 0-5.84-4.72-10.562-10.566-10.562zM741.7 71.96c-3.493 0-6.336-2.85-6.336-6.355 0-3.497 2.843-6.34 6.337-6.34 3.503 0 6.338 2.843 6.338 6.34 0 3.507-2.835 6.354-6.336 6.354h-.002zm288.643 44.41c-5.344 0-9.737 3.96-10.44 9.115H953.3c-2.036.055-5.596-1.43-6.997-2.9L838.826 15.125c-2.282-2.222-6.033-3.775-9.228-3.833h-80.482c-3.213.06-6.962 1.613-9.248 3.835l-34.72 34.707c-1.396 1.48-4.96 2.947-6.992 2.892h-1.387c-2.675 0-6.96.177-9.626.378-1.11.187-1.31.876-1.407 1.082-.255.775-.34 1.586-.372 5.18V81.52c-1.07-.37-2.217-.575-3.41-.575-5.84 0-10.562 4.737-10.562 10.572 0 5.836 4.725 10.575 10.562 10.575 5.85 0 10.57-4.738 10.57-10.575 0-3.353-1.56-6.337-3.99-8.273v-23.88c0-1.53.046-2.543.086-3.18 2.544-.164 5.954-.277 8.148-.277h1.387c3.196-.06 6.933-1.61 9.25-3.837L742.1 17.374c1.4-1.486 4.967-2.957 7.014-2.91H829.6c2.03-.047 5.59 1.424 6.992 2.91l107.46 107.458c2.292 2.21 6.063 3.773 9.247 3.826h66.63c.834 5.015 5.172 8.853 10.412 8.853 5.848 0 10.582-4.732 10.582-10.567 0-5.845-4.736-10.573-10.58-10.573zM689.88 90.985c0 3.5-2.835 6.345-6.322 6.345-3.505 0-6.35-2.843-6.35-6.344 0-3.502 2.845-6.34 6.35-6.34 3.487 0 6.323 2.837 6.322 6.34zm342.067 41.764c-3.512 0-6.355-2.843-6.355-6.35 0-3.5 2.844-6.337 6.355-6.337 3.5 0 6.336 2.84 6.336 6.338 0 3.507-2.835 6.35-6.336 6.35zM601.08 32.31c-5.85 0-10.568 4.727-10.568 10.57 0 5.837 4.72 10.566 10.568 10.566 2.09 0 4.037-.61 5.678-1.656h48.608c-.234.865-.37 1.776-.37 2.72 0 5.842 4.75 10.572 10.577 10.572 5.85 0 10.567-4.73 10.567-10.573 0-5.838-4.718-10.565-10.566-10.565-3.694 0-6.945 1.9-8.838 4.772v-.096H609.94c1.085-1.66 1.703-3.624 1.703-5.74 0-5.844-4.72-10.57-10.563-10.57zm66.074 15.322c3.51 0 6.342 2.847 6.342 6.347 0 3.504-2.833 6.34-6.342 6.34-3.49 0-6.332-2.836-6.332-6.342 0-3.5 2.84-6.348 6.332-6.348v.002zm-63.744.99h-.735v.072c-3.51 0-6.354-2.848-6.354-6.346 0-3.5 2.846-6.337 6.355-6.337 3.49 0 6.322 2.84 6.322 6.34 0 3.25-2.43 5.903-5.587 6.272zM589.98 210h3.178v-97.338h-3.178M692.012 43.92c5.827 0 10.556-4.7 10.56-10.522h1.48c2.91-.062 6.355-1.67 8.605-3.833l23.5-23.505c1.402-1.477 4.964-2.96 7-2.892h90.993c2.045-.068 5.596 1.415 6.996 2.892l96.97 96.96c2.3 2.217 6.034 3.777 9.24 3.833h48.315c.995 4.824 5.245 8.46 10.356 8.46 5.856 0 10.583-4.748 10.583-10.58 0-5.843-4.728-10.574-10.584-10.574-5.48 0-9.99 4.174-10.507 9.515h-48.164c-2.037.054-5.606-1.417-7-2.91l-96.96-96.95C841.095 1.6 837.345.05 834.15 0h-90.994c-3.198.05-6.948 1.6-9.244 3.815l-23.506 23.508c-1.44 1.53-4.755 2.96-6.354 2.896h-1.938c-1.334-4.31-5.354-7.436-10.104-7.436-5.85 0-10.567 4.743-10.567 10.573 0 5.835 4.72 10.562 10.57 10.563zm315.61 53.936c3.505 0 6.34 2.848 6.34 6.347 0 3.505-2.835 6.345-6.34 6.345-3.5 0-6.337-2.84-6.337-6.345 0-3.5 2.838-6.347 6.337-6.347zm-314.03-71.363c3.505 0 6.336 2.833 6.336 6.34 0 3.504-2.83 6.337-6.336 6.337-3.49 0-6.34-2.833-6.34-6.337 0-3.507 2.85-6.34 6.34-6.34zm-91.464 75.597c0-5.838-4.737-10.572-10.562-10.572-5.85 0-10.564 4.734-10.564 10.57 0 5.834 4.716 10.573 10.565 10.573 5.825.003 10.562-4.736 10.56-10.57zm-8.97 5.814c-3.52 0-6.354-2.84-6.354-6.35 0-3.497 2.833-6.333 6.354-6.333 3.505 0 6.337 2.838 6.337 6.335 0 3.508-2.832 6.35-6.337 6.35z"/><path d="M945.38 210v-68.262c-.06-3.19-1.622-6.94-3.847-9.238L834.677 25.627c-2.294-2.216-6.048-3.765-9.248-3.827h-71.18c-3.184.062-6.936 1.61-9.23 3.827l-44.335 44.317.064.056c-1.486 1.83-2.385 4.16-2.385 6.71 0 5.842 4.715 10.58 10.563 10.58 5.826 0 10.576-4.738 10.576-10.58 0-5.816-4.698-10.532-10.518-10.57l38.265-38.26c1.415-1.486 4.96-2.964 7-2.91h71.177c2.032-.054 5.604 1.424 6.994 2.91l106.887 106.864c1.464 1.396 2.953 4.96 2.89 6.995V210H945.38zM710.523 69.84c3.49 0 6.34 2.84 6.34 6.347s-2.85 6.337-6.34 6.337c-3.522 0-6.354-2.83-6.354-6.337 0-3.506 2.83-6.346 6.353-6.347z"/><path d="M892.232 210v-56.37c-.05-3.187-1.604-6.944-3.82-9.242l-23.418-23.4c-2.283-2.22-6.033-3.774-9.23-3.828l-101.82-.725c1.908-1.92 3.096-4.557 3.096-7.47 0-5.845-4.736-10.58-10.568-10.58-5.854 0-10.592 4.735-10.592 10.58 0 5.292 3.895 9.66 8.98 10.442v.133l110.898.78c2.05-.04 5.6 1.432 7.004 2.9l23.41 23.41c1.483 1.406 2.96 4.97 2.882 7V210h3.178zm-144.195-95.225c-3.488 0-6.336-2.836-6.336-6.34 0-3.508 2.85-6.345 6.338-6.345 3.51 0 6.356 2.837 6.356 6.344 0 3.505-2.845 6.34-6.357 6.34zM913.652 210v-67.074c-.042-3.193-1.617-6.95-3.832-9.235l-65.83-65.84c-2.29-2.214-6.048-3.763-9.232-3.814h-84.072v3.162h84.072c2.017-.043 5.59 1.42 6.982 2.9l65.845 65.83c1.478 1.406 2.95 4.97 2.892 7V210h3.175z"/><path d="M786.117 98.385c0-5.843-4.736-10.568-10.585-10.568-5.834 0-10.562 4.726-10.562 10.568 0 5.84 4.73 10.573 10.562 10.573 5.85 0 10.585-4.734 10.585-10.573zm-15.332-.534c0-3.5 2.842-6.334 6.33-6.334 3.513 0 6.354 2.834 6.354 6.336 0 3.5-2.844 6.357-6.355 6.357-3.488 0-6.33-2.856-6.33-6.357v-.002zM923.752 210v-73.02c-.046-3.2-1.587-6.95-3.814-9.24l-80.4-80.41c-2.31-2.216-6.06-3.77-9.247-3.823H774.48v3.18h55.813c2.03-.064 5.585 1.414 7 2.89l80.407 80.41c1.473 1.396 2.94 4.95 2.896 6.994V210h3.16zm-307.867 0V85.21c4.29-1.343 7.407-5.355 7.407-10.087 0-5.828-4.743-10.573-10.58-10.573-5.846 0-10.584 4.746-10.584 10.573 0 5.844 4.738 10.578 10.583 10.578V210h3.175zM607.95 74.6c0-3.507 2.845-6.34 6.357-6.34 3.5 0 6.33 2.833 6.33 6.34 0 3.495-2.83 6.335-6.316 6.343h-.04c-3.484-.008-6.33-2.848-6.33-6.343z"/><path d="M881.524 210v-50.9c-.046-3.188-1.6-6.95-3.817-9.24l-15.668-15.678c-2.315-2.215-6.05-3.765-9.25-3.824h-76.726v.813c-5.837 0-10.57 4.73-10.57 10.57 0 5.83 4.733 10.572 10.57 10.572 5.847 0 10.567-4.743 10.567-10.572 0-3.317-1.516-6.26-3.903-8.203h70.06c2.03-.06 5.6 1.416 6.99 2.895l15.675 15.677c1.497 1.4 2.967 4.96 2.91 6.992V210h3.162zm-97.535-68.79c0 3.513-2.835 6.343-6.338 6.343-3.505 0-6.355-2.83-6.355-6.343 0-3.5 2.85-6.342 6.355-6.342 3.503 0 6.336 2.843 6.337 6.342zM902.945 210v-61.91c-.057-3.205-1.615-6.957-3.845-9.25l-59.08-59.093c-2.283-2.22-6.05-3.773-9.235-3.827H765.36c-3.193.054-6.94 1.61-9.24 3.828l-3.773 3.792c-1.415 1.468-4.96 2.945-7.016 2.892h-7.32c-3.202.053-6.967 1.61-9.25 3.82l-8.92 8.935c-1.825-1.5-4.143-2.382-6.68-2.382-5.846 0-10.59 4.728-10.59 10.574 0 5.832 4.744 10.562 10.59 10.562 5.838 0 10.57-4.73 10.57-10.564 0-2.164-.65-4.174-1.772-5.847l9.036-9.033c1.413-1.483 4.967-2.945 7.018-2.893h7.32c3.215-.052 6.954-1.615 9.25-3.824l3.778-3.79c1.41-1.48 4.963-2.954 7.002-2.9h65.424c2.03-.053 5.6 1.42 6.99 2.9l59.104 59.087c1.464 1.406 2.94 4.963 2.89 7.01V210h3.176zm-188.213-96.81c-3.49 0-6.337-2.838-6.337-6.337 0-3.51 2.846-6.354 6.337-6.354 3.52 0 6.354 2.84 6.354 6.352 0 3.5-2.83 6.337-6.354 6.338z"/></g><g fill="#EEE"><path d="M120.063 302.43v14.678H93.216c-.967-6.414-6.498-11.33-13.19-11.33-7.342 0-13.32 5.98-13.32 13.34 0 7.374 5.978 13.34 13.32 13.34 6.712 0 12.224-4.92 13.19-11.335h26.848v13.33c0 3.307 2.702 6.003 6.01 6.003h32.013c3.312 0 6.01-2.696 6.01-6.003v-32.02c0-3.296-2.698-6-6.01-6h-32.014c-3.307 0-6.01 2.704-6.01 6v-.003zM90.05 319.777c0 4.432-3.577 8.005-8.008 8.005-4.42 0-7.992-3.572-7.992-8.005 0-4.426 3.573-7.996 7.992-7.996 4.43 0 8.007 3.572 8.008 7.997zm154.102 154.118c0-7.37-5.97-13.34-13.342-13.34-7.378 0-13.328 5.97-13.328 13.34 0 7.365 5.95 13.332 13.328 13.332 7.373 0 13.342-5.967 13.342-13.332zm-3.334.653c0 4.433-3.574 8.013-8 8.013-4.436 0-8.01-3.578-8.01-8.01 0-4.41 3.574-7.993 8.01-7.993 4.426 0 8 3.582 8 7.99zm-26.688-28.003c0-7.368-5.962-13.347-13.34-13.347-7.367 0-13.337 5.98-13.337 13.347 0 7.365 5.97 13.33 13.338 13.33 7.38 0 13.34-5.965 13.34-13.33zm-3.344.666c0 4.416-3.58 8.004-7.995 8.004s-7.994-3.588-7.994-8.002c0-4.423 3.58-8.014 7.996-8.014 4.415 0 7.996 3.59 7.996 8.015l-.002-.002z"/><path d="M580.38 369.814c0-7.362-5.976-13.34-13.354-13.34-6.607 0-12.088 4.846-13.14 11.176h-84.08c-4.02.067-8.778 2.037-11.67 4.83l-135.6 135.598c-1.775 1.876-6.26 3.734-8.824 3.67H212.144c-2.58.065-7.076-1.794-8.848-3.67l-43.785-43.78c-2.92-2.812-7.635-4.77-11.67-4.845h-1.74c-2.77 0-7.08-.146-10.29-.35-.05-.806-.107-2.08-.107-4.017v-30.132c3.073-2.44 5.04-6.207 5.04-10.438 0-7.366-5.96-13.347-13.344-13.347-7.364 0-13.33 5.98-13.33 13.346 0 7.363 5.966 13.343 13.33 13.343 1.51 0 2.955-.262 4.31-.728v27.952c.03 4.536.143 5.56.47 6.535.12.26.363 1.132 1.77 1.37 3.36.25 8.77.477 12.15.477h1.74c2.567-.073 7.06 1.78 8.823 3.65l43.812 43.794c2.893 2.803 7.62 4.768 11.67 4.84H313.71c4.027-.07 8.758-2.037 11.643-4.838l135.622-135.606c1.773-1.855 6.26-3.73 8.83-3.656h84.042c.89 6.504 6.44 11.504 13.18 11.504 7.378 0 13.352-5.965 13.353-13.34zm-450.964 53.37c-4.422 0-8.008-3.576-8.008-8 0-4.415 3.586-8.006 8.008-8.006 4.4 0 7.984 3.59 7.984 8.005 0 4.423-3.583 8-7.984 8zm447.63-52.693c0 4.42-3.58 8-7.993 8-4.436 0-8.018-3.58-8.018-8 0-4.422 3.582-8.01 8.018-8.01 4.414 0 7.994 3.588 7.993 8.01zM38.676 475.894c0-2.675-.786-5.152-2.15-7.244H95.57v-.126c2.393 3.623 6.488 6.024 11.152 6.024 7.385 0 13.34-5.966 13.34-13.332 0-7.372-5.955-13.344-13.34-13.344-7.354 0-13.342 5.972-13.342 13.344 0 1.188.164 2.337.467 3.433H32.504c-2.07-1.32-4.524-2.096-7.162-2.096-7.385 0-13.342 5.97-13.342 13.34s5.957 13.335 13.342 13.335c7.375 0 13.334-5.967 13.334-13.337zm62.057-14.01c0-4.424 3.576-8.002 7.985-8.002 4.43 0 8.007 3.58 8.007 8.004 0 4.418-3.576 8.01-8.007 8.01-4.408 0-7.985-3.592-7.985-8.01zm-65.4 14.68c0 4.414-3.574 7.995-7.983 7.995-4.434 0-8.017-3.582-8.017-7.998s3.583-8.007 8.017-8.007v.094h.926c3.983.465 7.056 3.808 7.056 7.913v.002zM11.326 265h4.015v122.83h-4.013"/><path d="M126.746 487.902c0 7.36 5.957 13.342 13.342 13.342 5.988 0 11.06-3.943 12.744-9.38h2.454c2.016-.08 6.192 1.728 8.015 3.658l29.666 29.66c2.897 2.8 7.627 4.753 11.66 4.816h114.828c4.03-.064 8.76-2.02 11.666-4.816L453.473 402.84c1.76-1.883 6.264-3.742 8.84-3.672h60.772c.652 6.738 6.34 12.01 13.262 12.01 7.388 0 13.355-5.972 13.355-13.344 0-7.358-5.97-13.35-13.355-13.35-6.453 0-11.82 4.585-13.065 10.677h-60.967c-4.055.067-8.77 2.037-11.67 4.836l-122.36 122.358c-1.772 1.863-6.255 3.732-8.83 3.65h-114.83c-2.57.082-7.06-1.787-8.834-3.65l-29.654-29.662c-2.834-2.73-7.182-4.756-10.85-4.834h-1.875c-.007-7.35-5.966-13.28-13.32-13.28-7.386 0-13.343 5.962-13.344 13.324zm403.613-89.4c0-4.42 3.584-8.004 7.993-8.004 4.42 0 8.003 3.583 8.003 8.005 0 4.418-3.582 8.01-8.003 8.01-4.41 0-7.995-3.592-7.994-8.01zM134.08 488.57c0-4.42 3.595-7.997 8.004-7.997 4.42 0 7.994 3.577 7.994 7.998 0 4.427-3.573 8.003-7.994 8.003-4.41 0-8.005-3.576-8.004-8.003zM13.334 387.83C5.95 387.83 0 393.812 0 401.172c0 7.368 5.95 13.34 13.334 13.34 7.354 0 13.332-5.972 13.332-13.34 0-7.36-5.978-13.342-13.332-13.342zm10.002 14.02c0 4.412-3.574 7.988-7.995 7.988-4.44 0-8.015-3.576-8.015-7.99 0-4.428 3.576-8.014 8.017-8.014 4.422 0 7.996 3.586 7.996 8.015h-.002z"/><path d="M455.795 265v86.14c.08 2.568-1.795 7.066-3.646 8.83L317.27 494.818c-1.752 1.876-6.26 3.74-8.825 3.672H218.63c-2.576.068-7.05-1.797-8.834-3.674l-48.285-48.28c7.343-.048 13.273-5.997 13.273-13.338 0-7.37-5.988-13.35-13.342-13.35-7.384 0-13.333 5.98-13.333 13.35 0 3.216 1.132 6.16 3.015 8.47l-.082.064 55.94 55.924c2.897 2.796 7.63 4.75 11.652 4.83h89.814c4.04-.08 8.774-2.033 11.67-4.83l134.85-134.86c2.8-2.9 4.773-7.63 4.845-11.66V265h-4.015zM155.428 433.86c0-4.428 3.576-7.998 8.018-7.998 4.408 0 8.004 3.57 8.004 7.997 0 4.422-3.596 8.005-8.004 8.005-4.442 0-8.018-3.583-8.018-8.007v.002z"/><path d="M388.738 265v71.132c.094 2.562-1.77 7.062-3.643 8.832l-29.537 29.542c-1.78 1.855-6.26 3.71-8.846 3.66l-139.943.982v.168c-6.414.99-11.323 6.5-11.323 13.18 0 7.377 5.98 13.35 13.356 13.35 7.365 0 13.34-5.973 13.34-13.35 0-3.676-1.494-7.006-3.907-9.43l128.492-.91c4.028-.07 8.76-2.03 11.646-4.832l29.547-29.53c2.8-2.9 4.763-7.64 4.83-11.663V265h-4.012zm-169.93 128.168c0 4.426-3.588 8.005-8.02 8.004-4.404 0-7.996-3.578-7.996-8.004 0-4.422 3.592-8.005 7.995-8.005 4.433 0 8.022 3.583 8.02 8.005z"/><path d="M419.772 265v84.643c-.055 4.028-2.04 8.77-4.833 11.653l-83.07 83.088c-2.892 2.793-7.635 4.748-11.658 4.813H214.13v-3.995h106.083c2.55.06 7.063-1.787 8.82-3.656l83.085-83.07c1.864-1.775 3.718-6.27 3.646-8.833V265h4.008z"/><path d="M245.477 392.506c-7.353 0-13.33 5.973-13.33 13.343s5.978 13.332 13.33 13.332c7.385 0 13.36-5.962 13.36-13.334s-5.976-13.344-13.36-13.344v.002zm2.002 5.996c4.436 0 8.015 3.6 8.015 8.02 0 4.418-3.58 7.997-8.017 7.997-4.405 0-7.983-3.58-7.983-7.997 0-4.42 3.577-8.02 7.982-8.02h.002zM432.522 265v92.143c-.06 4.043-2.01 8.773-4.815 11.664L326.245 470.274c-2.905 2.797-7.643 4.757-11.67 4.82h-70.423v-4.01h70.424c2.56.08 7.052-1.786 8.835-3.65L424.877 365.97c1.855-1.765 3.718-6.25 3.66-8.828V265h3.987zM40.02 265v156.854c-7.374 0-13.353 5.973-13.353 13.346 0 7.355 5.98 13.343 13.354 13.343 7.364 0 13.354-5.986 13.354-13.344 0-5.97-3.93-11.034-9.35-12.73V265H40.02zm1.974 162.86h.052c4.4.008 7.973 3.59 7.973 8 0 4.426-3.575 8.005-7.984 8.005-4.44 0-8.026-3.58-8.026-8.005 0-4.41 3.586-7.992 7.984-8z"/><path d="M375.248 265v64.23c.064 2.564-1.783 7.056-3.672 8.826l-19.78 19.78c-1.76 1.866-6.26 3.73-8.823 3.654H254.56c3.02-2.453 4.933-6.167 4.933-10.353 0-7.355-5.962-13.343-13.342-13.343-7.355 0-13.33 5.986-13.33 13.343 0 7.37 5.975 13.334 13.33 13.334v1.03h96.824c4.038-.072 8.757-2.03 11.674-4.825l19.77-19.786c2.802-2.895 4.76-7.637 4.82-11.66V265h-3.99zM248.16 359.81c-4.42 0-8.018-3.59-8.018-8.005 0-4.43 3.598-8.002 8.02-8.002 4.416 0 7.994 3.57 7.994 8.002 0 4.416-3.578 8.006-7.996 8.006z"/><path d="M402.252 265v78.124c.073 2.584-1.79 7.07-3.646 8.85l-74.583 74.56c-1.757 1.867-6.257 3.727-8.82 3.66H232.64c-2.564.065-7.052-1.793-8.827-3.66l-4.77-4.78c-2.897-2.79-7.622-4.76-11.674-4.825h-9.238c-2.59.065-7.076-1.784-8.857-3.65l-11.398-11.398c1.415-2.11 2.23-4.65 2.23-7.378 0-7.36-5.97-13.334-13.33-13.334-7.378 0-13.366 5.973-13.366 13.334 0 7.378 5.99 13.345 13.366 13.345 3.197 0 6.12-1.115 8.424-3.01l11.26 11.276c2.884 2.787 7.628 4.75 11.675 4.817h9.236c2.6-.07 7.07 1.796 8.857 3.65l4.76 4.782c2.906 2.803 7.63 4.762 11.655 4.83h82.563c4.023-.068 8.773-2.027 11.66-4.83l74.558-74.566c2.81-2.895 4.777-7.63 4.844-11.676V265h-4.015zM176.774 395.164c0 4.426-3.573 8.017-8.015 8.017-4.41 0-8-3.59-8-8.015 0-4.416 3.59-7.997 7.998-7.997 4.44 0 8.014 3.58 8.014 7.997h.002z"/></g><g fill="#EEE"><path d="M676.142 239.66v11.637H654.87c-.764-5.085-5.148-8.98-10.455-8.98-5.812 0-10.55 4.737-10.55 10.568 0 5.843 4.736 10.574 10.55 10.574 5.324 0 9.69-3.908 10.455-8.984h21.27v10.562c0 2.612 2.147 4.757 4.77 4.757h25.37c2.623 0 4.76-2.145 4.76-4.758v-25.38c0-2.61-2.137-4.75-4.76-4.75h-25.37c-2.623 0-4.77 2.14-4.77 4.75v.003zm-23.78 13.75c0 3.51-2.84 6.342-6.35 6.342-3.505 0-6.336-2.83-6.336-6.342 0-3.507 2.83-6.337 6.335-6.337 3.512 0 6.352 2.83 6.352 6.337zm122.114 122.13c0-5.843-4.725-10.567-10.567-10.567-5.847 0-10.563 4.726-10.563 10.566 0 5.84 4.717 10.56 10.562 10.56 5.842 0 10.566-4.723 10.566-10.562v.002zm-2.635.515c0 3.51-2.84 6.354-6.345 6.354-3.512 0-6.344-2.845-6.344-6.355 0-3.49 2.833-6.334 6.345-6.334 3.507 0 6.347 2.842 6.346 6.335zm-21.154-22.19c0-5.842-4.722-10.58-10.566-10.58-5.842 0-10.575 4.738-10.575 10.58 0 5.84 4.733 10.56 10.574 10.56 5.843 0 10.564-4.72 10.564-10.56h.002zm-2.65.53c0 3.494-2.834 6.34-6.335 6.34-3.492 0-6.335-2.846-6.335-6.34 0-3.506 2.843-6.354 6.337-6.354 3.502 0 6.337 2.85 6.337 6.356h-.004zM1040.925 293.06c0-5.83-4.734-10.566-10.582-10.566-5.24 0-9.578 3.838-10.414 8.856H953.3c-3.185.05-6.956 1.607-9.25 3.82L836.593 402.63c-1.4 1.48-4.96 2.956-6.992 2.91h-80.48c-2.047.046-5.61-1.43-7.012-2.91l-34.698-34.696c-2.316-2.23-6.052-3.777-9.25-3.838h-1.385c-2.195 0-5.605-.117-8.148-.28-.04-.638-.085-1.646-.085-3.182v-23.876c2.43-1.932 3.988-4.92 3.988-8.27 0-5.84-4.72-10.577-10.57-10.577-5.838 0-10.56 4.738-10.56 10.58 0 5.83 4.723 10.568 10.56 10.568 1.194 0 2.342-.205 3.41-.574v22.15c.03 3.6.12 4.406.372 5.182.1.205.297.898 1.407 1.086 2.663.195 6.95.375 9.624.375h1.387c2.03-.06 5.596 1.414 6.99 2.893l34.72 34.703c2.287 2.228 6.036 3.785 9.25 3.836h80.48c3.193-.05 6.944-1.61 9.228-3.827l107.477-107.47c1.4-1.465 4.96-2.954 6.996-2.896h66.605c.7 5.15 5.097 9.12 10.44 9.12 5.844 0 10.58-4.73 10.58-10.575zm-357.367 42.29c-3.505 0-6.35-2.832-6.35-6.34 0-3.492 2.845-6.34 6.35-6.34 3.487 0 6.323 2.848 6.323 6.34 0 3.508-2.834 6.34-6.322 6.34zm354.725-41.756c0 3.504-2.835 6.34-6.336 6.34-3.512 0-6.355-2.836-6.355-6.34 0-3.506 2.844-6.344 6.355-6.344 3.5 0 6.336 2.838 6.336 6.344zM611.645 377.12c0-2.116-.62-4.082-1.702-5.74h46.794v-.103c1.893 2.87 5.144 4.777 8.838 4.777 5.85 0 10.567-4.725 10.567-10.563 0-5.842-4.72-10.575-10.567-10.575-5.826 0-10.576 4.733-10.576 10.577 0 .943.134 1.85.37 2.724h-48.61c-1.64-1.046-3.587-1.66-5.678-1.66-5.85 0-10.567 4.726-10.567 10.567 0 5.843 4.72 10.564 10.568 10.564 5.845 0 10.565-4.722 10.565-10.563l-.003-.004zm49.177-11.1c0-3.504 2.84-6.34 6.332-6.34 3.51 0 6.342 2.836 6.342 6.34s-2.833 6.344-6.342 6.344c-3.49 0-6.332-2.84-6.332-6.342v-.002zm-51.825 11.632c0 3.502-2.83 6.336-6.322 6.336-3.51 0-6.354-2.836-6.354-6.338s2.846-6.342 6.355-6.342v.068h.735c3.157.37 5.587 3.018 5.587 6.273v.002zM589.98 210h3.178v97.334h-3.178"/><path d="M681.443 386.64c0 5.835 4.72 10.574 10.567 10.574 4.75 0 8.77-3.13 10.105-7.438h1.938c1.6-.062 4.913 1.373 6.354 2.906l23.506 23.504c2.296 2.217 6.046 3.77 9.244 3.815h90.994c3.196-.046 6.946-1.6 9.248-3.814l96.96-96.953c1.395-1.485 4.964-2.96 7-2.902h48.166c.515 5.338 5.023 9.52 10.506 9.52 5.855 0 10.582-4.735 10.582-10.58 0-5.827-4.727-10.58-10.583-10.58-5.113 0-9.363 3.634-10.357 8.466H947.36c-3.208.05-6.942 1.607-9.24 3.832l-96.97 96.953c-1.402 1.485-4.953 2.966-6.998 2.9h-90.994c-2.035.064-5.596-1.415-6.998-2.9l-23.502-23.503c-2.25-2.16-5.695-3.764-8.604-3.834h-1.48c-.005-5.814-4.73-10.52-10.562-10.52-5.85-.003-10.57 4.73-10.57 10.56v-.004zm319.842-70.842c0-3.506 2.838-6.35 6.337-6.35 3.505 0 6.34 2.844 6.34 6.35 0 3.494-2.835 6.343-6.34 6.343-3.5 0-6.337-2.848-6.337-6.342zm-314.034 71.37c0-3.506 2.854-6.338 6.343-6.338 3.505 0 6.336 2.832 6.336 6.337 0 3.507-2.83 6.34-6.337 6.34-3.49 0-6.34-2.833-6.34-6.34h-.002zm-95.686-79.834c-5.85 0-10.564 4.74-10.564 10.577 0 5.843 4.715 10.568 10.564 10.568 5.825 0 10.562-4.727 10.562-10.566 0-5.837-4.736-10.576-10.562-10.576v-.002zm7.93 11.11c0 3.5-2.83 6.335-6.336 6.335-3.52 0-6.354-2.835-6.354-6.337 0-3.508 2.833-6.354 6.354-6.354 3.505 0 6.337 2.847 6.337 6.354z"/><path d="M942.2 210v68.266c.06 2.033-1.43 5.6-2.893 6.996L832.423 392.116c-1.39 1.49-4.962 2.97-6.994 2.91h-71.18c-2.037.06-5.584-1.42-6.998-2.91L708.99 353.86c5.817-.04 10.517-4.755 10.517-10.574 0-5.835-4.75-10.57-10.576-10.57-5.85 0-10.56 4.735-10.56 10.57 0 2.555.896 4.88 2.384 6.717l-.063.05 44.335 44.315c2.296 2.216 6.048 3.77 9.23 3.83h71.177c3.2-.06 6.954-1.613 9.248-3.83L941.533 287.5c2.225-2.298 3.787-6.048 3.846-9.234V210h-3.18zM704.17 343.812c0-3.506 2.832-6.336 6.354-6.336 3.49 0 6.34 2.83 6.34 6.336s-2.85 6.342-6.34 6.342c-3.522 0-6.354-2.836-6.354-6.342z"/><path d="M889.054 210v56.37c.077 2.032-1.397 5.6-2.88 6.998l-23.412 23.405c-1.403 1.475-4.953 2.945-7.003 2.904l-110.902.78v.13c-5.084.79-8.98 5.157-8.98 10.448 0 5.847 4.74 10.58 10.593 10.58 5.833.002 10.568-4.733 10.568-10.58 0-2.91-1.188-5.554-3.098-7.478l101.822-.72c3.195-.06 6.945-1.606 9.23-3.833l23.416-23.4c2.22-2.297 3.773-6.053 3.822-9.236V210h-3.176zm-134.66 101.57c0 3.507-2.846 6.34-6.355 6.34-3.49 0-6.337-2.833-6.337-6.34 0-3.506 2.848-6.35 6.336-6.35 3.508.003 6.355 2.844 6.355 6.35z"/><path d="M913.652 210v67.077c-.042 3.188-1.617 6.95-3.832 9.23l-65.83 65.847c-2.29 2.215-6.048 3.76-9.232 3.814h-84.072v-3.17h84.072c2.017.053 5.59-1.416 6.982-2.896l65.845-65.83c1.478-1.41 2.95-4.967 2.892-6.996V210h3.175z"/><path d="M775.532 311.042c-5.834 0-10.562 4.733-10.562 10.577 0 5.833 4.73 10.56 10.562 10.56 5.85 0 10.585-4.728 10.585-10.562 0-5.845-4.736-10.578-10.585-10.578v.002zm1.583 4.754c3.513 0 6.354 2.853 6.354 6.356 0 3.494-2.844 6.336-6.355 6.336-3.488 0-6.33-2.842-6.33-6.338 0-3.504 2.84-6.355 6.33-6.354zM923.752 210v73.02c-.046 3.202-1.587 6.954-3.814 9.238l-80.4 80.408c-2.31 2.216-6.06 3.77-9.247 3.82H774.48v-3.18h55.813c2.03.07 5.585-1.415 7-2.893l80.407-80.4c1.473-1.403 2.94-4.956 2.896-6.993V210h3.16zm-311.042 0v124.3c-5.844 0-10.582 4.733-10.582 10.577 0 5.828 4.738 10.57 10.583 10.57 5.84 0 10.583-4.742 10.583-10.57 0-4.732-3.116-8.748-7.407-10.088V210H612.71zm1.57 129.06h.04c3.486.003 6.317 2.847 6.317 6.34 0 3.505-2.83 6.347-6.33 6.347-3.514 0-6.36-2.842-6.36-6.35 0-3.49 2.848-6.335 6.333-6.338z"/><path d="M878.365 210v50.9c.056 2.03-1.414 5.594-2.91 6.993l-15.674 15.674c-1.393 1.485-4.96 2.963-6.99 2.9h-70.06c2.388-1.945 3.903-4.893 3.903-8.203 0-5.834-4.722-10.576-10.567-10.576-5.836 0-10.57 4.74-10.57 10.576 0 5.834 4.734 10.564 10.57 10.564v.816h76.725c3.2-.06 6.937-1.612 9.25-3.828l15.668-15.674c2.218-2.295 3.772-6.05 3.817-9.244V210h-3.16zm-100.712 75.136c-3.505 0-6.355-2.847-6.355-6.35 0-3.51 2.85-6.34 6.355-6.34 3.503 0 6.336 2.83 6.336 6.34 0 3.503-2.835 6.35-6.337 6.35z"/><path d="M899.77 210v61.91c.05 2.05-1.427 5.604-2.892 7.013l-59.104 59.086c-1.394 1.477-4.96 2.95-6.99 2.895H765.36c-2.04.056-5.595-1.42-7.004-2.896l-3.777-3.793c-2.298-2.213-6.037-3.772-9.25-3.82h-7.32c-2.05.048-5.605-1.413-7.02-2.892l-9.035-9.038c1.124-1.668 1.77-3.68 1.77-5.846 0-5.83-4.73-10.562-10.568-10.562-5.847 0-10.588 4.733-10.588 10.563 0 5.847 4.74 10.58 10.587 10.58 2.537 0 4.854-.885 6.68-2.383l8.92 8.93c2.283 2.21 6.048 3.768 9.252 3.816h7.32c2.054-.05 5.6 1.43 7.015 2.893l3.773 3.792c2.3 2.226 6.046 3.772 9.24 3.83h65.423c3.187-.058 6.953-1.604 9.236-3.83l59.082-59.09c2.23-2.294 3.788-6.046 3.845-9.25V210h-3.178.005zM721.086 313.15c0 3.508-2.83 6.354-6.354 6.354-3.49 0-6.338-2.848-6.338-6.354 0-3.502 2.847-6.336 6.338-6.336 3.522 0 6.354 2.834 6.354 6.338v-.002z"/></g></svg>