<svg xmlns="http://www.w3.org/2000/svg" width="581" height="265" viewBox="0 0 581 265"><g fill="#333"><path d="M126.38 233.568h32.013c3.312 0 6.01-2.704 6.01-6v-32.02c0-3.308-2.698-6.004-6.01-6.004H126.38c-3.308 0-6.01 2.696-6.01 6.003v13.33H93.523c-.967-6.415-6.48-11.336-13.19-11.336-7.342 0-13.32 5.968-13.32 13.34 0 7.363 5.978 13.342 13.32 13.342 6.692 0 12.224-4.916 13.19-11.33h26.848v14.676c0 3.293 2.702 5.998 6.008 5.998v.002zM82.35 218.22c-4.42 0-7.993-3.57-7.993-7.993 0-4.433 3.573-8.006 7.992-8.006 4.43 0 8.006 3.573 8.006 8.005 0 4.425-3.578 7.998-8.007 7.996zM231.116 42.775c-7.377 0-13.327 5.967-13.327 13.332 0 7.37 5.95 13.34 13.328 13.34 7.374 0 13.344-5.97 13.344-13.34 0-7.365-5.97-13.332-13.342-13.332h-.003zm2.008 20.67c-4.436 0-8.01-3.58-8.01-7.99 0-4.433 3.574-8.014 8.01-8.014 4.426 0 8 3.58 8 8.01 0 4.41-3.574 7.993-8 7.994zm-32.028 6.683c-7.367 0-13.337 5.964-13.337 13.33 0 7.367 5.97 13.346 13.338 13.346 7.38 0 13.34-5.98 13.34-13.347 0-7.365-5.96-13.33-13.34-13.33zm2 20.678c-4.415 0-7.995-3.59-7.995-8.015 0-4.416 3.58-8.004 7.996-8.004s7.997 3.588 7.997 8.002c0 4.423-3.58 8.014-7.995 8.014l-.003.003zm364.235 56.04c-6.736 0-12.287 5-13.182 11.505h-84.04c-2.567.072-7.058-1.8-8.83-3.656L325.66 19.084c-2.887-2.8-7.613-4.765-11.643-4.836H212.452c-4.05.07-8.776 2.036-11.67 4.838l-43.81 43.795c-1.765 1.87-6.257 3.726-8.823 3.65h-1.74c-3.38 0-8.79.228-12.15.48-1.407.236-1.65 1.11-1.77 1.37-.327.973-.44 1.997-.47 6.533v27.952c-1.355-.465-2.8-.725-4.31-.725-7.364 0-13.33 5.978-13.33 13.34 0 7.368 5.966 13.348 13.33 13.348 7.384 0 13.343-5.98 13.343-13.347 0-4.23-1.967-7.994-5.04-10.435V74.91c0-1.934.06-3.21.11-4.016 3.208-.204 7.517-.35 10.287-.35h1.74c4.036-.074 8.75-2.03 11.673-4.844l43.785-43.78c1.77-1.876 6.27-3.735 8.848-3.67h101.567c2.564-.065 7.05 1.794 8.822 3.67l135.602 135.6c2.893 2.793 7.648 4.763 11.67 4.83h84.08c1.053 6.33 6.53 11.176 13.143 11.176 7.38 0 13.354-5.978 13.354-13.34 0-7.373-5.977-13.34-13.355-13.34h-.008zM137.707 114.82c0 4.414-3.583 8.005-7.984 8.005-4.422 0-8.008-3.59-8.008-8.005 0-4.424 3.586-8 8.008-8 4.4 0 7.984 3.577 7.984 8zM569.36 167.52c-4.437 0-8.02-3.585-8.02-8.01 0-4.42 3.583-8 8.02-8 4.413 0 7.993 3.58 7.993 8 0 4.426-3.58 8.01-7.994 8.01zM25.65 40.774c-7.387 0-13.343 5.964-13.343 13.334s5.957 13.34 13.342 13.34c2.637 0 5.09-.775 7.16-2.095h61.345c-.303 1.095-.467 2.243-.467 3.432 0 7.372 5.99 13.344 13.344 13.344 7.385 0 13.34-5.972 13.34-13.344 0-7.366-5.955-13.332-13.34-13.332-4.664 0-8.76 2.402-11.152 6.025v-.125H36.833c1.364-2.092 2.15-4.57 2.15-7.245 0-7.37-5.958-13.335-13.333-13.334zm83.376 19.336c4.43 0 8.005 3.59 8.005 8.01 0 4.422-3.575 8-8.006 8-4.41 0-7.986-3.578-7.986-8 0-4.42 3.576-8.01 7.985-8.01h.003zM28.58 61.353h-.925v.093c-4.435 0-8.018-3.59-8.018-8.007s3.583-8 8.017-8c4.41 0 7.98 3.58 7.98 7.998 0 4.104-3.072 7.447-7.056 7.913v.004h.002zM11.633 265h4.015V142.17h-4.013m128.76-86.745c7.356 0 13.315-5.933 13.323-13.28h1.876c3.667-.08 8.015-2.104 10.85-4.835l29.653-29.662c1.777-1.864 6.265-3.733 8.836-3.65H319.76c2.576-.083 7.06 1.786 8.832 3.65l122.36 122.354c2.9 2.8 7.612 4.77 11.667 4.835h60.968c1.248 6.093 6.613 10.677 13.066 10.677 7.39 0 13.355-5.99 13.355-13.35 0-7.372-5.972-13.344-13.356-13.344-6.922 0-12.61 5.27-13.262 12.01h-60.77c-2.578.07-7.08-1.79-8.844-3.672L331.428 4.815C328.518 2.018 323.788.063 319.76 0H204.933c-4.034.063-8.764 2.02-11.66 4.815l-29.666 29.662c-1.82 1.93-5.998 3.738-8.014 3.66h-2.454c-1.685-5.44-6.757-9.382-12.745-9.382-7.385 0-13.342 5.98-13.342 13.342 0 7.364 5.957 13.328 13.342 13.328zm398.27 68.062c4.42 0 8 3.592 8 8.01 0 4.422-3.58 8.005-8 8.005-4.41 0-7.997-3.583-7.997-8.005 0-4.418 3.584-8.01 7.992-8.01h.004zM142.39 33.43c4.42 0 7.993 3.576 7.993 8.002 0 4.42-3.573 7.997-7.994 7.997-4.41 0-8.004-3.58-8.004-8 0-4.426 3.594-8 8.003-8h.002zm-115.42 95.398c0-7.368-5.98-13.34-13.33-13.34-7.385 0-13.335 5.972-13.335 13.34 0 7.36 5.95 13.342 13.334 13.342 7.355 0 13.333-5.982 13.332-13.342zm-11.324 7.338c-4.44 0-8.015-3.586-8.015-8.015 0-4.41 3.576-7.986 8.017-7.986 4.422 0 7.996 3.576 7.996 7.99 0 4.428-3.574 8.014-7.995 8.014l-.002-.002z"/><path d="M460.115 265v-86.14c-.068-4.028-2.047-8.76-4.846-11.658L320.42 32.342c-2.896-2.798-7.63-4.752-11.67-4.83h-89.813c-4.022.078-8.757 2.033-11.652 4.83l-55.94 55.924.082.066c-1.883 2.31-3.015 5.252-3.015 8.47 0 7.37 5.95 13.347 13.334 13.347 7.352 0 13.34-5.98 13.34-13.35 0-7.34-5.93-13.29-13.27-13.337l48.284-48.28c1.783-1.878 6.258-3.744 8.834-3.674h89.814c2.564-.07 7.072 1.796 8.822 3.672l134.88 134.85c1.855 1.762 3.73 6.26 3.647 8.827V265h4.018zM163.752 88.134c4.408 0 8.004 3.583 8.004 8.007 0 4.43-3.598 8-8.006 8-4.44 0-8.018-3.57-8.018-7.997 0-4.423 3.577-8.006 8.018-8.006v-.002h.002z"/><path d="M393.057 265v-71.132c-.064-4.022-2.027-8.765-4.826-11.664l-29.546-29.53c-2.89-2.8-7.617-4.76-11.646-4.83l-128.494-.912c2.413-2.423 3.907-5.754 3.907-9.428 0-7.378-5.974-13.353-13.34-13.352-7.376 0-13.355 5.974-13.355 13.352 0 6.678 4.908 12.188 11.322 13.178v.17l139.943.983c2.586-.052 7.066 1.804 8.844 3.66l29.537 29.54c1.876 1.77 3.737 6.27 3.646 8.833V265h4.01zM211.094 144.837c-4.403 0-7.995-3.583-7.995-8.005 0-4.426 3.592-8.004 7.995-8.004 4.434 0 8.022 3.578 8.022 8.004 0 4.422-3.588 8.005-8.023 8.005zM420.078 265v-84.643c-.055-4.028-2.04-8.77-4.832-11.653l-83.07-83.088c-2.893-2.793-7.635-4.748-11.658-4.813h-106.08v3.995H320.52c2.55-.06 7.064 1.787 8.82 3.656l83.086 83.07c1.863 1.775 3.717 6.27 3.645 8.833V265h4.008z"/><path d="M259.143 124.15c0-7.37-5.975-13.333-13.36-13.333-7.352 0-13.328 5.962-13.328 13.334s5.977 13.346 13.33 13.346c7.383 0 13.358-5.972 13.358-13.343v-.003zm-19.34-.672c0-4.416 3.578-7.996 7.982-7.996 4.438 0 8.017 3.58 8.017 7.996 0 4.42-3.58 8.02-8.017 8.02-4.404 0-7.982-3.6-7.982-8.02zM432.83 265v-92.143c-.06-4.043-2.012-8.773-4.814-11.664L326.553 59.726c-2.906-2.797-7.645-4.757-11.67-4.822H244.46v4.012h70.423c2.56-.08 7.053 1.785 8.836 3.65L425.183 164.03c1.855 1.764 3.72 6.25 3.66 8.827V265h3.986zm-388.5 0V107.528c5.42-1.695 9.35-6.76 9.35-12.728 0-7.357-5.99-13.344-13.353-13.344-7.375 0-13.354 5.986-13.354 13.344 0 7.373 5.98 13.345 13.354 13.345V265h4.003zM34.317 94.14c0-4.426 3.586-8.005 8.026-8.005 4.41 0 7.982 3.58 7.982 8.005 0 4.41-3.573 7.992-7.973 8H42.3c-4.397-.008-7.983-3.59-7.983-8z"/><path d="M379.543 265v-64.23c-.062-4.024-2.02-8.768-4.82-11.66l-19.77-19.785c-2.92-2.795-7.638-4.752-11.675-4.825h-96.82v1.026c-7.357 0-13.332 5.965-13.332 13.334 0 7.356 5.975 13.344 13.332 13.344 7.38 0 13.342-5.986 13.342-13.342 0-4.186-1.913-7.9-4.933-10.354h88.41c2.565-.076 7.063 1.788 8.823 3.654l19.78 19.78c1.89 1.772 3.735 6.263 3.673 8.827V265h3.99zm-123.08-86.805c0 4.43-3.578 8.002-7.995 8.002-4.42 0-8.017-3.57-8.017-8.002 0-4.416 3.6-8.006 8.02-8.006 4.417 0 7.995 3.59 7.995 8.005h-.003zM406.567 265v-78.124c-.062-4.047-2.035-8.78-4.842-11.674l-74.56-74.566c-2.89-2.803-7.64-4.762-11.66-4.83h-82.56c-4.025.068-8.75 2.027-11.655 4.83l-4.76 4.783c-1.786 1.85-6.26 3.716-8.855 3.646h-9.236c-4.048.07-8.79 2.03-11.677 4.818l-11.257 11.278c-2.303-1.893-5.227-3.008-8.424-3.008-7.377 0-13.365 5.967-13.365 13.345 0 7.36 5.99 13.33 13.367 13.33 7.36 0 13.33-5.97 13.33-13.333 0-2.73-.813-5.268-2.23-7.38l11.4-11.398c1.78-1.867 6.268-3.717 8.856-3.65h9.236c4.05-.066 8.775-2.035 11.673-4.825l4.77-4.78c1.774-1.867 6.262-3.727 8.826-3.66h82.56c2.563-.066 7.063 1.793 8.82 3.66l74.583 74.56c1.854 1.776 3.72 6.266 3.645 8.85V265h4.013zm-237.5-122.167c-4.41 0-7.998-3.58-7.998-7.997 0-4.426 3.59-8.017 7.997-8.017 4.44 0 8.015 3.59 8.015 8.014 0 4.416-3.574 7.997-8.015 8z"/></g></svg>