<svg xmlns="http://www.w3.org/2000/svg" width="350" height="450" viewBox="0 0 350 450"><path fill="#FF3FAF" d="M29.257 448C14.29 448 2.11 435.82 2.11 420.848v-233.18c0-7.418 2.94-14.347 8.28-19.512l1.902-1.84-.052-.03 54.713-54.712 1.406-1.4c5.126-5.127 11.943-7.95 19.194-7.95h233.18c14.973 0 27.153 12.176 27.153 27.145v233.187c0 6.182-2.13 12.224-5.998 17.023l-58.32 58.32-.065.08c-5.185 6.368-12.86 10.02-21.06 10.02H29.256z"/><path fill="#111" d="M320.736 100.223H87.556c-7.785 0-15.106 3.03-20.61 8.536l-2.47 2.468c-.035.034-.072.068-.107.104l-55.38 55.38c-.026.025-.046.06-.074.09-5.432 5.294-8.804 12.683-8.804 20.865v233.18C.112 436.95 13.162 450 29.257 450h233.188c9.126 0 17.267-4.193 22.61-10.758l58.187-58.187c.092-.09.177-.19.265-.293 4.18-5.213 6.383-11.507 6.383-18.207V129.368c0-16.072-13.075-29.145-29.154-29.145zM69.413 116.59l.108-.102 2.577-2.58c4.126-4.126 9.62-6.4 15.458-6.4h233.18c5.81 0 11.087 2.278 15 5.978l-53.13 53.138c-1.805-1.732-3.833-3.234-6.037-4.455l38.92-38.922c.71-.715.71-1.866 0-2.578-.708-.713-1.857-.713-2.576 0l-39.85 39.85c-3.29-1.286-6.873-2.003-10.618-2.003H57.674l20.497-20.5c.717-.712.717-1.867 0-2.576-.707-.713-1.862-.713-2.574 0l-21.832 21.833c-.345.345-.52.794-.53 1.245H43.1l35.1-35.098c.71-.715.71-1.866 0-2.58-.71-.71-1.866-.71-2.574 0L39.19 157.274c-.346.345-.522.794-.53 1.245h-9.402c-.614 0-1.227.025-1.83.064l41.985-41.992zm214.893 304.258c0 5.142-1.79 9.867-4.764 13.6l-1.025 1.03c-.24.234-.418.5-.582.777-3.962 3.99-9.44 6.454-15.49 6.454H29.257c-12.053 0-21.86-9.81-21.86-21.862v-233.18c0-12.054 9.808-21.862 21.86-21.862h233.188c12.053 0 21.86 9.81 21.86 21.86V420.85zm58.292-58.292c0 4.96-1.607 9.62-4.658 13.5l-46.392 46.393c.026-.534.05-1.058.05-1.602v-9.944h.036c.475 0 .937-.17 1.298-.53l36.43-36.432c.71-.714.71-1.873 0-2.582-.71-.71-1.86-.71-2.58 0l-35.184 35.197v-10.23c.007 0 .028.006.036.006.475 0 .937-.18 1.298-.53l21.88-21.892c.708-.708.708-1.857 0-2.567-.71-.71-1.863-.71-2.583 0l-20.632 20.637V187.667c0-1.31-.1-2.59-.27-3.854.06-.042.107-.08.16-.127l42.092-42.095c.715-.713.715-1.865 0-2.576-.71-.714-1.86-.714-2.568 0l-40.57 40.562c-.75-2.61-1.85-5.065-3.25-7.315.156-.113.312-.233.46-.38l52.52-52.516c1.546 3 2.427 6.4 2.427 10.005v233.186z"/><path d="M100.306 255.437c0 10.063-8.152 18.216-18.215 18.216-10.062 0-18.216-8.152-18.216-18.216s8.153-18.218 18.217-18.218c10.063 0 18.216 8.153 18.216 18.217zM227.826 255.437c0 10.063-8.15 18.216-18.208 18.216-10.07 0-18.223-8.152-18.223-18.216s8.152-18.218 18.223-18.218c10.057 0 18.208 8.153 18.208 18.217z"/><path fill="#FF3FAF" d="M320.736 25.528c-7.03 0-12.742-5.72-12.742-12.75S313.707.026 320.736.026c7.037 0 12.756 5.722 12.756 12.752s-5.72 12.75-12.756 12.75zM29.236 25.507c-7.034 0-12.755-5.72-12.755-12.756C16.48 5.72 22.203 0 29.237 0c7.03 0 12.75 5.72 12.75 12.75 0 7.036-5.72 12.757-12.75 12.757z"/><path d="M182.292 355.997c0 4.022-3.27 7.29-7.292 7.29h-58.3c-4.02 0-7.283-3.268-7.283-7.29 0-4.024 3.263-7.29 7.284-7.29H175c4.023 0 7.292 3.266 7.292 7.29z"/><path fill="#9F0057" d="M224.166 355.997c-3.035 0-5.495-2.464-5.495-5.49 0-5.524-.853-7.442-1.572-8.09-.988-.87-3.613-.946-6.215-.946-.546 0-1.11.007-1.697.013-.647.004-1.315.01-2.018.01h-46.172c-5.188 0-11.146-.606-15.143-4.37-3.995 3.764-9.955 4.37-15.147 4.37H84.534c-.696 0-1.37-.006-2.017-.01-.59-.006-1.153-.012-1.7-.012-2.6 0-5.228.077-6.207.948-.72.646-1.58 2.566-1.58 8.09 0 3.025-2.46 5.49-5.488 5.49-3.03 0-5.492-2.465-5.492-5.49v-.923c0-19.08 9.74-19.08 22.07-19.08h46.586c9.655 0 9.655-4.074 9.655-6.51v-3.51c0-3.03 2.465-5.49 5.493-5.49 3.024 0 5.488 2.46 5.488 5.49v3.51c0 2.436 0 6.51 9.655 6.51h46.586c12.33 0 22.07 0 22.07 19.08v.923c.002 3.025-2.462 5.49-5.484 5.49z"/><path fill="#111" d="M148.43 126.793L41.775 20.14c-1.256 2.122-3.03 3.898-5.154 5.152l106.656 106.652c.712.715 1.642 1.07 2.577 1.07.93 0 1.863-.355 2.576-1.07 1.422-1.42 1.422-3.726 0-5.15z"/><path d="M324.39 241.59c-7.642 0-13.85 6.212-13.85 13.847 0 7.634 6.208 13.843 13.85 13.843 7.627 0 13.836-6.21 13.836-13.843 0-7.635-6.21-13.847-13.836-13.847zM317.903 241.59h-.806c-7.634 0-13.85 6.212-13.85 13.847 0 7.634 6.216 13.843 13.85 13.843h.806c-5.198-2.445-8.816-7.723-8.816-13.843 0-6.125 3.618-11.403 8.816-13.847z"/><path fill="#111" d="M308.198 20.163L201.57 126.793c-1.418 1.425-1.418 3.732 0 5.15.71.716 1.646 1.07 2.583 1.07.924 0 1.86-.354 2.567-1.07L313.358 25.32c-2.126-1.258-3.9-3.032-5.16-5.157z"/></svg>